%FSLAX45Y45*%
G04 Gerber Fmt 4.5, Leading zero omitted, Abs format (unit mm)*
G04 Created by KiCad (PCBNEW 5.99.0+really5.1.10+dfsg1-1) date 2021-12-19 10:59:43*
%MOMM*%
%LPD*%
G01*
G04 APERTURE LIST*
%TA.AperFunction,Profile*%
%ADD10C,0.050000*%
%TD*%
%TA.AperFunction,Profile*%
%ADD11C,0.100000*%
%TD*%
%ADD12C,0.200000*%
%ADD13C,0.300000*%
G04 APERTURE END LIST*
D10*
X11089699Y-8559800D02*
G75*
G03*
X11089699Y-8559800I-218499J0D01*
G01*
X13693199Y-11709400D02*
G75*
G03*
X13693199Y-11709400I-218499J0D01*
G01*
D11*
X14160500Y-8280400D02*
X14160500Y-12458700D01*
X9283700Y-8280400D02*
X14160500Y-8280400D01*
X9283700Y-12458700D02*
X9283700Y-8280400D01*
X14160500Y-12458700D02*
X9283700Y-12458700D01*
D12*
D13*
X9565128Y-12929414D02*
X9565128Y-12629414D01*
X9636557Y-12629414D01*
X9679414Y-12643700D01*
X9707986Y-12672271D01*
X9722271Y-12700843D01*
X9736557Y-12757986D01*
X9736557Y-12800843D01*
X9722271Y-12857986D01*
X9707986Y-12886557D01*
X9679414Y-12915129D01*
X9636557Y-12929414D01*
X9565128Y-12929414D01*
X9865128Y-12929414D02*
X9865128Y-12729414D01*
X9865128Y-12786557D02*
X9879414Y-12757986D01*
X9893700Y-12743700D01*
X9922271Y-12729414D01*
X9950843Y-12729414D01*
X10050843Y-12929414D02*
X10050843Y-12729414D01*
X10050843Y-12629414D02*
X10036557Y-12643700D01*
X10050843Y-12657986D01*
X10065128Y-12643700D01*
X10050843Y-12629414D01*
X10050843Y-12657986D01*
X10236557Y-12929414D02*
X10207986Y-12915129D01*
X10193700Y-12886557D01*
X10193700Y-12629414D01*
X10393700Y-12929414D02*
X10365128Y-12915129D01*
X10350843Y-12886557D01*
X10350843Y-12629414D01*
X10736557Y-12929414D02*
X10736557Y-12629414D01*
X10836557Y-12843700D01*
X10936557Y-12629414D01*
X10936557Y-12929414D01*
X11207986Y-12929414D02*
X11207986Y-12772271D01*
X11193700Y-12743700D01*
X11165128Y-12729414D01*
X11107986Y-12729414D01*
X11079414Y-12743700D01*
X11207986Y-12915129D02*
X11179414Y-12929414D01*
X11107986Y-12929414D01*
X11079414Y-12915129D01*
X11065128Y-12886557D01*
X11065128Y-12857986D01*
X11079414Y-12829414D01*
X11107986Y-12815129D01*
X11179414Y-12815129D01*
X11207986Y-12800843D01*
X11350843Y-12729414D02*
X11350843Y-13029414D01*
X11350843Y-12743700D02*
X11379414Y-12729414D01*
X11436557Y-12729414D01*
X11465128Y-12743700D01*
X11479414Y-12757986D01*
X11493700Y-12786557D01*
X11493700Y-12872271D01*
X11479414Y-12900843D01*
X11465128Y-12915129D01*
X11436557Y-12929414D01*
X11379414Y-12929414D01*
X11350843Y-12915129D01*
X11622271Y-12900843D02*
X11636557Y-12915129D01*
X11622271Y-12929414D01*
X11607986Y-12915129D01*
X11622271Y-12900843D01*
X11622271Y-12929414D01*
X11622271Y-12743700D02*
X11636557Y-12757986D01*
X11622271Y-12772271D01*
X11607986Y-12757986D01*
X11622271Y-12743700D01*
X11622271Y-12772271D01*
M02*
