%TF.GenerationSoftware,KiCad,Pcbnew,5.99.0+really5.1.10+dfsg1-1*%
%TF.CreationDate,2021-12-19T10:59:00-08:00*%
%TF.ProjectId,TasmotaGenericPCB,5461736d-6f74-4614-9765-6e6572696350,rev?*%
%TF.SameCoordinates,Original*%
%TF.FileFunction,Copper,L2,Bot*%
%TF.FilePolarity,Positive*%
%FSLAX46Y46*%
G04 Gerber Fmt 4.6, Leading zero omitted, Abs format (unit mm)*
G04 Created by KiCad (PCBNEW 5.99.0+really5.1.10+dfsg1-1) date 2021-12-19 10:59:00*
%MOMM*%
%LPD*%
G01*
G04 APERTURE LIST*
%TA.AperFunction,ComponentPad*%
%ADD10O,3.600000X1.800000*%
%TD*%
%TA.AperFunction,ComponentPad*%
%ADD11O,1.800000X3.600000*%
%TD*%
%TA.AperFunction,ComponentPad*%
%ADD12O,1.600000X1.600000*%
%TD*%
%TA.AperFunction,ComponentPad*%
%ADD13C,1.600000*%
%TD*%
%TA.AperFunction,ComponentPad*%
%ADD14C,2.000000*%
%TD*%
%TA.AperFunction,ComponentPad*%
%ADD15R,1.727200X1.727200*%
%TD*%
%TA.AperFunction,ComponentPad*%
%ADD16O,1.727200X1.727200*%
%TD*%
%TA.AperFunction,ComponentPad*%
%ADD17O,2.000000X1.905000*%
%TD*%
%TA.AperFunction,ComponentPad*%
%ADD18R,2.000000X1.905000*%
%TD*%
%TA.AperFunction,Conductor*%
%ADD19C,0.250000*%
%TD*%
G04 APERTURE END LIST*
D10*
%TO.P,J3,2*%
%TO.N,/GND*%
X103124000Y-111633000D03*
%TO.P,J3,1*%
%TO.N,Net-(J3-Pad1)*%
%TA.AperFunction,ComponentPad*%
G36*
G01*
X104674000Y-117613000D02*
X101574000Y-117613000D01*
G75*
G02*
X101324000Y-117363000I0J250000D01*
G01*
X101324000Y-116063000D01*
G75*
G02*
X101574000Y-115813000I250000J0D01*
G01*
X104674000Y-115813000D01*
G75*
G02*
X104924000Y-116063000I0J-250000D01*
G01*
X104924000Y-117363000D01*
G75*
G02*
X104674000Y-117613000I-250000J0D01*
G01*
G37*
%TD.AperFunction*%
%TD*%
D11*
%TO.P,J2,4*%
%TO.N,Net-(J2-Pad4)*%
X127127000Y-116713000D03*
%TO.P,J2,3*%
%TO.N,Net-(J2-Pad3)*%
X122047000Y-116713000D03*
%TO.P,J2,2*%
%TO.N,Net-(J2-Pad2)*%
X116967000Y-116713000D03*
%TO.P,J2,1*%
%TO.N,Net-(J2-Pad1)*%
%TA.AperFunction,ComponentPad*%
G36*
G01*
X110987000Y-118263000D02*
X110987000Y-115163000D01*
G75*
G02*
X111237000Y-114913000I250000J0D01*
G01*
X112537000Y-114913000D01*
G75*
G02*
X112787000Y-115163000I0J-250000D01*
G01*
X112787000Y-118263000D01*
G75*
G02*
X112537000Y-118513000I-250000J0D01*
G01*
X111237000Y-118513000D01*
G75*
G02*
X110987000Y-118263000I0J250000D01*
G01*
G37*
%TD.AperFunction*%
%TD*%
D10*
%TO.P,J1,4*%
%TO.N,/GND*%
X102997000Y-89535000D03*
%TO.P,J1,3*%
%TO.N,Net-(C2-Pad1)*%
X102997000Y-94615000D03*
%TO.P,J1,2*%
%TO.N,/VCC*%
X102997000Y-99695000D03*
%TO.P,J1,1*%
%TO.N,/GND*%
%TA.AperFunction,ComponentPad*%
G36*
G01*
X104547000Y-105675000D02*
X101447000Y-105675000D01*
G75*
G02*
X101197000Y-105425000I0J250000D01*
G01*
X101197000Y-104125000D01*
G75*
G02*
X101447000Y-103875000I250000J0D01*
G01*
X104547000Y-103875000D01*
G75*
G02*
X104797000Y-104125000I0J-250000D01*
G01*
X104797000Y-105425000D01*
G75*
G02*
X104547000Y-105675000I-250000J0D01*
G01*
G37*
%TD.AperFunction*%
%TD*%
D12*
%TO.P,R2,2*%
%TO.N,Net-(C2-Pad1)*%
X129794000Y-97790000D03*
D13*
%TO.P,R2,1*%
%TO.N,Net-(J3-Pad1)*%
X119634000Y-97790000D03*
%TD*%
D12*
%TO.P,R1,2*%
%TO.N,Net-(C2-Pad1)*%
X129667000Y-91567000D03*
D13*
%TO.P,R1,1*%
%TO.N,Net-(R1-Pad1)*%
X119507000Y-91567000D03*
%TD*%
D14*
%TO.P,C2,2*%
%TO.N,/GND*%
X120396000Y-108251000D03*
%TO.P,C2,1*%
%TO.N,Net-(C2-Pad1)*%
X120396000Y-103251000D03*
%TD*%
%TO.P,C1,2*%
%TO.N,/GND*%
X113284000Y-89742000D03*
%TO.P,C1,1*%
%TO.N,/VCC*%
X113284000Y-94742000D03*
%TD*%
D15*
%TO.P,U1,1*%
%TO.N,Net-(J2-Pad1)*%
X134112000Y-88646000D03*
D16*
%TO.P,U1,2*%
%TO.N,/GND*%
X136652000Y-88646000D03*
%TO.P,U1,3*%
%TO.N,Net-(R1-Pad1)*%
X134112000Y-91186000D03*
%TO.P,U1,4*%
%TO.N,Net-(Q1-Pad1)*%
X136652000Y-91186000D03*
%TO.P,U1,5*%
%TO.N,Net-(J3-Pad1)*%
X134112000Y-93726000D03*
%TO.P,U1,6*%
%TO.N,Net-(Q2-Pad1)*%
X136652000Y-93726000D03*
%TO.P,U1,7*%
%TO.N,Net-(C2-Pad1)*%
X134112000Y-96266000D03*
%TO.P,U1,8*%
%TO.N,Net-(J2-Pad2)*%
X136652000Y-96266000D03*
%TD*%
D17*
%TO.P,U2,3*%
%TO.N,/VCC*%
X113284000Y-100076000D03*
%TO.P,U2,2*%
%TO.N,Net-(C2-Pad1)*%
X113284000Y-102616000D03*
D18*
%TO.P,U2,1*%
%TO.N,/GND*%
X113284000Y-105156000D03*
%TD*%
D17*
%TO.P,Q2,3*%
%TO.N,/GND*%
X136779000Y-103124000D03*
%TO.P,Q2,2*%
%TO.N,Net-(J2-Pad4)*%
X136779000Y-105664000D03*
D18*
%TO.P,Q2,1*%
%TO.N,Net-(Q2-Pad1)*%
X136779000Y-108204000D03*
%TD*%
D17*
%TO.P,Q1,3*%
%TO.N,/GND*%
X129540000Y-103124000D03*
%TO.P,Q1,2*%
%TO.N,Net-(J2-Pad3)*%
X129540000Y-105664000D03*
D18*
%TO.P,Q1,1*%
%TO.N,Net-(Q1-Pad1)*%
X129540000Y-108204000D03*
%TD*%
D19*
%TO.N,/GND*%
X117301000Y-105156000D02*
X120396000Y-108251000D01*
X113284000Y-105156000D02*
X117301000Y-105156000D01*
%TO.N,Net-(C2-Pad1)*%
X119761000Y-102616000D02*
X120396000Y-103251000D01*
X113284000Y-102616000D02*
X119761000Y-102616000D01*
X129794000Y-91694000D02*
X129667000Y-91567000D01*
X129794000Y-97790000D02*
X129794000Y-91694000D01*
X110998000Y-102616000D02*
X102997000Y-94615000D01*
X113284000Y-102616000D02*
X110998000Y-102616000D01*
%TO.N,Net-(J2-Pad1)*%
X114334575Y-116713000D02*
X126492000Y-104555575D01*
X111887000Y-116713000D02*
X114334575Y-116713000D01*
X126492000Y-103681419D02*
X131240419Y-98933000D01*
X126492000Y-104555575D02*
X126492000Y-103681419D01*
X131240419Y-91517581D02*
X134112000Y-88646000D01*
X131240419Y-98933000D02*
X131240419Y-91517581D01*
%TO.N,Net-(J2-Pad2)*%
X116967000Y-116713000D02*
X116967000Y-116586000D01*
X116967000Y-116713000D02*
X117983000Y-116713000D01*
X117983000Y-116713000D02*
X127508000Y-107188000D01*
X127508000Y-103301829D02*
X129590829Y-101219000D01*
X127508000Y-107188000D02*
X127508000Y-103301829D01*
X131699000Y-101219000D02*
X136652000Y-96266000D01*
X129590829Y-101219000D02*
X131699000Y-101219000D01*
%TO.N,Net-(Q1-Pad1)*%
X137840601Y-92374601D02*
X136652000Y-91186000D01*
X137840601Y-100208228D02*
X137840601Y-92374601D01*
X129844829Y-108204000D02*
X137840601Y-100208228D01*
X129540000Y-108204000D02*
X129844829Y-108204000D01*
%TD*%
M02*
