%TF.GenerationSoftware,KiCad,Pcbnew,5.99.0+really5.1.10+dfsg1-1*%
%TF.CreationDate,2021-12-19T10:59:00-08:00*%
%TF.ProjectId,TasmotaGenericPCB,5461736d-6f74-4614-9765-6e6572696350,rev?*%
%TF.SameCoordinates,Original*%
%TF.FileFunction,Legend,Top*%
%TF.FilePolarity,Positive*%
%FSLAX46Y46*%
G04 Gerber Fmt 4.6, Leading zero omitted, Abs format (unit mm)*
G04 Created by KiCad (PCBNEW 5.99.0+really5.1.10+dfsg1-1) date 2021-12-19 10:59:00*
%MOMM*%
%LPD*%
G01*
G04 APERTURE LIST*
%ADD10C,0.150000*%
%ADD11C,0.010000*%
%ADD12C,0.120000*%
%ADD13C,0.254000*%
%ADD14C,0.152400*%
%ADD15O,3.600000X1.800000*%
%ADD16O,1.800000X3.600000*%
%ADD17O,1.600000X1.600000*%
%ADD18C,1.600000*%
%ADD19C,2.000000*%
%ADD20R,1.727200X1.727200*%
%ADD21O,1.727200X1.727200*%
%ADD22O,2.000000X1.905000*%
%ADD23R,2.000000X1.905000*%
G04 APERTURE END LIST*
D10*
X117713047Y-123459761D02*
X117046380Y-122507380D01*
X116570190Y-123459761D02*
X116570190Y-121459761D01*
X117332095Y-121459761D01*
X117522571Y-121555000D01*
X117617809Y-121650238D01*
X117713047Y-121840714D01*
X117713047Y-122126428D01*
X117617809Y-122316904D01*
X117522571Y-122412142D01*
X117332095Y-122507380D01*
X116570190Y-122507380D01*
X111442571Y-121459761D02*
X112585428Y-121459761D01*
X112014000Y-123459761D02*
X112014000Y-121459761D01*
X94615095Y-89162000D02*
X94519857Y-89114380D01*
X94377000Y-89114380D01*
X94234142Y-89162000D01*
X94138904Y-89257238D01*
X94091285Y-89352476D01*
X94043666Y-89542952D01*
X94043666Y-89685809D01*
X94091285Y-89876285D01*
X94138904Y-89971523D01*
X94234142Y-90066761D01*
X94377000Y-90114380D01*
X94472238Y-90114380D01*
X94615095Y-90066761D01*
X94662714Y-90019142D01*
X94662714Y-89685809D01*
X94472238Y-89685809D01*
X95091285Y-90114380D02*
X95091285Y-89114380D01*
X95662714Y-90114380D01*
X95662714Y-89114380D01*
X96138904Y-90114380D02*
X96138904Y-89114380D01*
X96377000Y-89114380D01*
X96519857Y-89162000D01*
X96615095Y-89257238D01*
X96662714Y-89352476D01*
X96710333Y-89542952D01*
X96710333Y-89685809D01*
X96662714Y-89876285D01*
X96615095Y-89971523D01*
X96519857Y-90066761D01*
X96377000Y-90114380D01*
X96138904Y-90114380D01*
X94543666Y-95083380D02*
X94734142Y-95083380D01*
X94829380Y-95131000D01*
X94924619Y-95226238D01*
X94972238Y-95416714D01*
X94972238Y-95750047D01*
X94924619Y-95940523D01*
X94829380Y-96035761D01*
X94734142Y-96083380D01*
X94543666Y-96083380D01*
X94448428Y-96035761D01*
X94353190Y-95940523D01*
X94305571Y-95750047D01*
X94305571Y-95416714D01*
X94353190Y-95226238D01*
X94448428Y-95131000D01*
X94543666Y-95083380D01*
X95829380Y-95416714D02*
X95829380Y-96083380D01*
X95400809Y-95416714D02*
X95400809Y-95940523D01*
X95448428Y-96035761D01*
X95543666Y-96083380D01*
X95686523Y-96083380D01*
X95781761Y-96035761D01*
X95829380Y-95988142D01*
X96162714Y-95416714D02*
X96543666Y-95416714D01*
X96305571Y-95083380D02*
X96305571Y-95940523D01*
X96353190Y-96035761D01*
X96448428Y-96083380D01*
X96543666Y-96083380D01*
X94154809Y-93559380D02*
X94773857Y-93559380D01*
X94440523Y-93940333D01*
X94583380Y-93940333D01*
X94678619Y-93987952D01*
X94726238Y-94035571D01*
X94773857Y-94130809D01*
X94773857Y-94368904D01*
X94726238Y-94464142D01*
X94678619Y-94511761D01*
X94583380Y-94559380D01*
X94297666Y-94559380D01*
X94202428Y-94511761D01*
X94154809Y-94464142D01*
X95202428Y-94464142D02*
X95250047Y-94511761D01*
X95202428Y-94559380D01*
X95154809Y-94511761D01*
X95202428Y-94464142D01*
X95202428Y-94559380D01*
X95583380Y-93559380D02*
X96202428Y-93559380D01*
X95869095Y-93940333D01*
X96011952Y-93940333D01*
X96107190Y-93987952D01*
X96154809Y-94035571D01*
X96202428Y-94130809D01*
X96202428Y-94368904D01*
X96154809Y-94464142D01*
X96107190Y-94511761D01*
X96011952Y-94559380D01*
X95726238Y-94559380D01*
X95631000Y-94511761D01*
X95583380Y-94464142D01*
X96488142Y-93559380D02*
X96821476Y-94559380D01*
X97154809Y-93559380D01*
X94107190Y-101615666D02*
X94011952Y-101520428D01*
X93821476Y-101234714D01*
X93726238Y-101044238D01*
X93631000Y-100758523D01*
X93535761Y-100282333D01*
X93535761Y-99901380D01*
X93631000Y-99425190D01*
X93726238Y-99139476D01*
X93821476Y-98949000D01*
X94011952Y-98663285D01*
X94107190Y-98568047D01*
X94869095Y-100091857D02*
X96392904Y-100091857D01*
X95631000Y-100853761D02*
X95631000Y-99329952D01*
X97154809Y-101615666D02*
X97250047Y-101520428D01*
X97440523Y-101234714D01*
X97535761Y-101044238D01*
X97631000Y-100758523D01*
X97726238Y-100282333D01*
X97726238Y-99901380D01*
X97631000Y-99425190D01*
X97535761Y-99139476D01*
X97440523Y-98949000D01*
X97250047Y-98663285D01*
X97154809Y-98568047D01*
X94234190Y-106695666D02*
X94138952Y-106600428D01*
X93948476Y-106314714D01*
X93853238Y-106124238D01*
X93758000Y-105838523D01*
X93662761Y-105362333D01*
X93662761Y-104981380D01*
X93758000Y-104505190D01*
X93853238Y-104219476D01*
X93948476Y-104029000D01*
X94138952Y-103743285D01*
X94234190Y-103648047D01*
X94996095Y-105171857D02*
X96519904Y-105171857D01*
X97281809Y-106695666D02*
X97377047Y-106600428D01*
X97567523Y-106314714D01*
X97662761Y-106124238D01*
X97758000Y-105838523D01*
X97853238Y-105362333D01*
X97853238Y-104981380D01*
X97758000Y-104505190D01*
X97662761Y-104219476D01*
X97567523Y-104029000D01*
X97377047Y-103743285D01*
X97281809Y-103648047D01*
X107442095Y-104783000D02*
X107346857Y-104735380D01*
X107204000Y-104735380D01*
X107061142Y-104783000D01*
X106965904Y-104878238D01*
X106918285Y-104973476D01*
X106870666Y-105163952D01*
X106870666Y-105306809D01*
X106918285Y-105497285D01*
X106965904Y-105592523D01*
X107061142Y-105687761D01*
X107204000Y-105735380D01*
X107299238Y-105735380D01*
X107442095Y-105687761D01*
X107489714Y-105640142D01*
X107489714Y-105306809D01*
X107299238Y-105306809D01*
X107918285Y-105735380D02*
X107918285Y-104735380D01*
X108489714Y-105735380D01*
X108489714Y-104735380D01*
X108965904Y-105735380D02*
X108965904Y-104735380D01*
X109204000Y-104735380D01*
X109346857Y-104783000D01*
X109442095Y-104878238D01*
X109489714Y-104973476D01*
X109537333Y-105163952D01*
X109537333Y-105306809D01*
X109489714Y-105497285D01*
X109442095Y-105592523D01*
X109346857Y-105687761D01*
X109204000Y-105735380D01*
X108965904Y-105735380D01*
X96083380Y-116006380D02*
X95607190Y-116339714D01*
X96083380Y-116577809D02*
X95083380Y-116577809D01*
X95083380Y-116196857D01*
X95131000Y-116101619D01*
X95178619Y-116054000D01*
X95273857Y-116006380D01*
X95416714Y-116006380D01*
X95511952Y-116054000D01*
X95559571Y-116101619D01*
X95607190Y-116196857D01*
X95607190Y-116577809D01*
X95559571Y-115577809D02*
X95559571Y-115244476D01*
X96083380Y-115101619D02*
X96083380Y-115577809D01*
X95083380Y-115577809D01*
X95083380Y-115101619D01*
X96035761Y-114720666D02*
X96083380Y-114577809D01*
X96083380Y-114339714D01*
X96035761Y-114244476D01*
X95988142Y-114196857D01*
X95892904Y-114149238D01*
X95797666Y-114149238D01*
X95702428Y-114196857D01*
X95654809Y-114244476D01*
X95607190Y-114339714D01*
X95559571Y-114530190D01*
X95511952Y-114625428D01*
X95464333Y-114673047D01*
X95369095Y-114720666D01*
X95273857Y-114720666D01*
X95178619Y-114673047D01*
X95131000Y-114625428D01*
X95083380Y-114530190D01*
X95083380Y-114292095D01*
X95131000Y-114149238D01*
X95559571Y-113720666D02*
X95559571Y-113387333D01*
X96083380Y-113244476D02*
X96083380Y-113720666D01*
X95083380Y-113720666D01*
X95083380Y-113244476D01*
X95083380Y-112958761D02*
X95083380Y-112387333D01*
X96083380Y-112673047D02*
X95083380Y-112673047D01*
X126555571Y-121523238D02*
X126650809Y-121428000D01*
X126841285Y-121332761D01*
X127317476Y-121332761D01*
X127507952Y-121428000D01*
X127603190Y-121523238D01*
X127698428Y-121713714D01*
X127698428Y-121904190D01*
X127603190Y-122189904D01*
X126460333Y-123332761D01*
X127698428Y-123332761D01*
X122618428Y-123332761D02*
X121475571Y-123332761D01*
X122047000Y-123332761D02*
X122047000Y-121332761D01*
X121856523Y-121618476D01*
X121666047Y-121808952D01*
X121475571Y-121904190D01*
D11*
%TO.C,G\u002A\u002A\u002A*%
G36*
X96695636Y-117444722D02*
G01*
X96862822Y-117567893D01*
X96979404Y-117746421D01*
X97031187Y-117958413D01*
X97003976Y-118181976D01*
X97002598Y-118186203D01*
X96895057Y-118384267D01*
X96739111Y-118512919D01*
X96556320Y-118566097D01*
X96368240Y-118537736D01*
X96196430Y-118421775D01*
X96189799Y-118414800D01*
X96047437Y-118262400D01*
X95115318Y-118263028D01*
X94183200Y-118263657D01*
X94068900Y-118440116D01*
X94000975Y-118572011D01*
X93965678Y-118724377D01*
X93954683Y-118935234D01*
X93954600Y-118962097D01*
X93954600Y-119307619D01*
X94208600Y-119557800D01*
X94347745Y-119684936D01*
X94434487Y-119741960D01*
X94462600Y-119727508D01*
X94489135Y-119651088D01*
X94560116Y-119514756D01*
X94662607Y-119342441D01*
X94715574Y-119259517D01*
X94783711Y-119155141D01*
X97372523Y-119155141D01*
X97391204Y-119275477D01*
X97409547Y-119304459D01*
X97519710Y-119373241D01*
X97637343Y-119356220D01*
X97714826Y-119276481D01*
X97748180Y-119137513D01*
X97709651Y-119019996D01*
X97617814Y-118949853D01*
X97491246Y-118953012D01*
X97484761Y-118955397D01*
X97407276Y-119031893D01*
X97372523Y-119155141D01*
X94783711Y-119155141D01*
X94968548Y-118872000D01*
X97096384Y-118872000D01*
X97248784Y-118719600D01*
X97428323Y-118596363D01*
X97615764Y-118572744D01*
X97802790Y-118649426D01*
X97832724Y-118671523D01*
X97964816Y-118832537D01*
X98030651Y-119036298D01*
X98033168Y-119256085D01*
X97975309Y-119465179D01*
X97860013Y-119636858D01*
X97715741Y-119734795D01*
X97537394Y-119763468D01*
X97361528Y-119719406D01*
X97226940Y-119614586D01*
X97202071Y-119576232D01*
X97177670Y-119543486D01*
X97135246Y-119519271D01*
X97060865Y-119502313D01*
X96940592Y-119491340D01*
X96760491Y-119485078D01*
X96506628Y-119482256D01*
X96166071Y-119481600D01*
X95180718Y-119481600D01*
X95072199Y-119634000D01*
X94963681Y-119786400D01*
X96014383Y-119786400D01*
X96406891Y-120181223D01*
X96586413Y-120366630D01*
X96702854Y-120501689D01*
X96768617Y-120604058D01*
X96796103Y-120691393D01*
X96799400Y-120740023D01*
X96812333Y-120855831D01*
X96863379Y-120900007D01*
X96906833Y-120904000D01*
X96994603Y-120940527D01*
X97136342Y-121043448D01*
X97319028Y-121202771D01*
X97414833Y-121293809D01*
X97815400Y-121683618D01*
X97815400Y-122795180D01*
X97581541Y-123170390D01*
X97347683Y-123545600D01*
X95168926Y-123545600D01*
X95057063Y-123672654D01*
X94925306Y-123774234D01*
X94781158Y-123831192D01*
X94668984Y-123839787D01*
X94574759Y-123803537D01*
X94461005Y-123706334D01*
X94438258Y-123683818D01*
X94325343Y-123555399D01*
X94272864Y-123437575D01*
X94259431Y-123280713D01*
X94259400Y-123268757D01*
X94260783Y-123258169D01*
X94564087Y-123258169D01*
X94576992Y-123374698D01*
X94598066Y-123410133D01*
X94692663Y-123443507D01*
X94807337Y-123416664D01*
X94866679Y-123370596D01*
X94914302Y-123258491D01*
X94899979Y-123142319D01*
X94840653Y-123047764D01*
X94753270Y-123000508D01*
X94654773Y-123026235D01*
X94644658Y-123034066D01*
X94588770Y-123127458D01*
X94564087Y-123258169D01*
X94260783Y-123258169D01*
X94292383Y-123016280D01*
X94381894Y-122819182D01*
X94513776Y-122686187D01*
X94673872Y-122626017D01*
X94848024Y-122647396D01*
X95022074Y-122759047D01*
X95046800Y-122783600D01*
X95192808Y-122936000D01*
X97129600Y-122934742D01*
X97243900Y-122758283D01*
X97321528Y-122596906D01*
X97354832Y-122402598D01*
X97358200Y-122287102D01*
X97354072Y-122125238D01*
X97330596Y-122013883D01*
X97271133Y-121916469D01*
X97159044Y-121796430D01*
X97115155Y-121752990D01*
X96961724Y-121607695D01*
X96864923Y-121532681D01*
X96814300Y-121521922D01*
X96799405Y-121569392D01*
X96799400Y-121570929D01*
X96774034Y-121638575D01*
X96706729Y-121766875D01*
X96610668Y-121931136D01*
X96583500Y-121975256D01*
X96367600Y-122322253D01*
X95272204Y-122324326D01*
X94176808Y-122326400D01*
X94030800Y-122478800D01*
X93889883Y-122591361D01*
X93735612Y-122630306D01*
X93700600Y-122631200D01*
X93510604Y-122585639D01*
X93356253Y-122464216D01*
X93249300Y-122289821D01*
X93202759Y-122090718D01*
X93548149Y-122090718D01*
X93561334Y-122206607D01*
X93582066Y-122241733D01*
X93674717Y-122275952D01*
X93776043Y-122248353D01*
X93822164Y-122195245D01*
X93849191Y-122049906D01*
X93824736Y-121927318D01*
X93762341Y-121849805D01*
X93675548Y-121839692D01*
X93624400Y-121869200D01*
X93571150Y-121960837D01*
X93548149Y-122090718D01*
X93202759Y-122090718D01*
X93201502Y-122085342D01*
X93224613Y-121873670D01*
X93262929Y-121778951D01*
X93405215Y-121583716D01*
X93574798Y-121480707D01*
X93759006Y-121472197D01*
X93945169Y-121560460D01*
X94034090Y-121640600D01*
X94201777Y-121818400D01*
X96066294Y-121818400D01*
X96246344Y-121513600D01*
X95247457Y-121513600D01*
X94881130Y-121144812D01*
X94710166Y-120968166D01*
X94599108Y-120837614D01*
X94533090Y-120730460D01*
X94497246Y-120624010D01*
X94481797Y-120535212D01*
X94457663Y-120398312D01*
X94970410Y-120398312D01*
X95016677Y-120497716D01*
X95145503Y-120646111D01*
X95184376Y-120686177D01*
X95398153Y-120904000D01*
X95844776Y-120904000D01*
X96067945Y-120900475D01*
X96205913Y-120888172D01*
X96274891Y-120864496D01*
X96291400Y-120832507D01*
X96255830Y-120764416D01*
X96162628Y-120654917D01*
X96033402Y-120529053D01*
X95775405Y-120297091D01*
X95373002Y-120299721D01*
X95143969Y-120308746D01*
X95011306Y-120338465D01*
X94970410Y-120398312D01*
X94457663Y-120398312D01*
X94456041Y-120389117D01*
X94419332Y-120318032D01*
X94353404Y-120295628D01*
X94314723Y-120294400D01*
X94223956Y-120271052D01*
X94105952Y-120194348D01*
X93947213Y-120054290D01*
X93817328Y-119926100D01*
X93454000Y-119557800D01*
X93384332Y-118539262D01*
X93631366Y-118147088D01*
X93768010Y-117930162D01*
X96382142Y-117930162D01*
X96388861Y-118069007D01*
X96397970Y-118097300D01*
X96470507Y-118194404D01*
X96568107Y-118197749D01*
X96649518Y-118132364D01*
X96686315Y-118026272D01*
X96665152Y-117905253D01*
X96600465Y-117810043D01*
X96524595Y-117779800D01*
X96431740Y-117822847D01*
X96382142Y-117930162D01*
X93768010Y-117930162D01*
X93878400Y-117754915D01*
X96027240Y-117754399D01*
X96205040Y-117576599D01*
X96331086Y-117471718D01*
X96448634Y-117407862D01*
X96492042Y-117398799D01*
X96695636Y-117444722D01*
G37*
X96695636Y-117444722D02*
X96862822Y-117567893D01*
X96979404Y-117746421D01*
X97031187Y-117958413D01*
X97003976Y-118181976D01*
X97002598Y-118186203D01*
X96895057Y-118384267D01*
X96739111Y-118512919D01*
X96556320Y-118566097D01*
X96368240Y-118537736D01*
X96196430Y-118421775D01*
X96189799Y-118414800D01*
X96047437Y-118262400D01*
X95115318Y-118263028D01*
X94183200Y-118263657D01*
X94068900Y-118440116D01*
X94000975Y-118572011D01*
X93965678Y-118724377D01*
X93954683Y-118935234D01*
X93954600Y-118962097D01*
X93954600Y-119307619D01*
X94208600Y-119557800D01*
X94347745Y-119684936D01*
X94434487Y-119741960D01*
X94462600Y-119727508D01*
X94489135Y-119651088D01*
X94560116Y-119514756D01*
X94662607Y-119342441D01*
X94715574Y-119259517D01*
X94783711Y-119155141D01*
X97372523Y-119155141D01*
X97391204Y-119275477D01*
X97409547Y-119304459D01*
X97519710Y-119373241D01*
X97637343Y-119356220D01*
X97714826Y-119276481D01*
X97748180Y-119137513D01*
X97709651Y-119019996D01*
X97617814Y-118949853D01*
X97491246Y-118953012D01*
X97484761Y-118955397D01*
X97407276Y-119031893D01*
X97372523Y-119155141D01*
X94783711Y-119155141D01*
X94968548Y-118872000D01*
X97096384Y-118872000D01*
X97248784Y-118719600D01*
X97428323Y-118596363D01*
X97615764Y-118572744D01*
X97802790Y-118649426D01*
X97832724Y-118671523D01*
X97964816Y-118832537D01*
X98030651Y-119036298D01*
X98033168Y-119256085D01*
X97975309Y-119465179D01*
X97860013Y-119636858D01*
X97715741Y-119734795D01*
X97537394Y-119763468D01*
X97361528Y-119719406D01*
X97226940Y-119614586D01*
X97202071Y-119576232D01*
X97177670Y-119543486D01*
X97135246Y-119519271D01*
X97060865Y-119502313D01*
X96940592Y-119491340D01*
X96760491Y-119485078D01*
X96506628Y-119482256D01*
X96166071Y-119481600D01*
X95180718Y-119481600D01*
X95072199Y-119634000D01*
X94963681Y-119786400D01*
X96014383Y-119786400D01*
X96406891Y-120181223D01*
X96586413Y-120366630D01*
X96702854Y-120501689D01*
X96768617Y-120604058D01*
X96796103Y-120691393D01*
X96799400Y-120740023D01*
X96812333Y-120855831D01*
X96863379Y-120900007D01*
X96906833Y-120904000D01*
X96994603Y-120940527D01*
X97136342Y-121043448D01*
X97319028Y-121202771D01*
X97414833Y-121293809D01*
X97815400Y-121683618D01*
X97815400Y-122795180D01*
X97581541Y-123170390D01*
X97347683Y-123545600D01*
X95168926Y-123545600D01*
X95057063Y-123672654D01*
X94925306Y-123774234D01*
X94781158Y-123831192D01*
X94668984Y-123839787D01*
X94574759Y-123803537D01*
X94461005Y-123706334D01*
X94438258Y-123683818D01*
X94325343Y-123555399D01*
X94272864Y-123437575D01*
X94259431Y-123280713D01*
X94259400Y-123268757D01*
X94260783Y-123258169D01*
X94564087Y-123258169D01*
X94576992Y-123374698D01*
X94598066Y-123410133D01*
X94692663Y-123443507D01*
X94807337Y-123416664D01*
X94866679Y-123370596D01*
X94914302Y-123258491D01*
X94899979Y-123142319D01*
X94840653Y-123047764D01*
X94753270Y-123000508D01*
X94654773Y-123026235D01*
X94644658Y-123034066D01*
X94588770Y-123127458D01*
X94564087Y-123258169D01*
X94260783Y-123258169D01*
X94292383Y-123016280D01*
X94381894Y-122819182D01*
X94513776Y-122686187D01*
X94673872Y-122626017D01*
X94848024Y-122647396D01*
X95022074Y-122759047D01*
X95046800Y-122783600D01*
X95192808Y-122936000D01*
X97129600Y-122934742D01*
X97243900Y-122758283D01*
X97321528Y-122596906D01*
X97354832Y-122402598D01*
X97358200Y-122287102D01*
X97354072Y-122125238D01*
X97330596Y-122013883D01*
X97271133Y-121916469D01*
X97159044Y-121796430D01*
X97115155Y-121752990D01*
X96961724Y-121607695D01*
X96864923Y-121532681D01*
X96814300Y-121521922D01*
X96799405Y-121569392D01*
X96799400Y-121570929D01*
X96774034Y-121638575D01*
X96706729Y-121766875D01*
X96610668Y-121931136D01*
X96583500Y-121975256D01*
X96367600Y-122322253D01*
X95272204Y-122324326D01*
X94176808Y-122326400D01*
X94030800Y-122478800D01*
X93889883Y-122591361D01*
X93735612Y-122630306D01*
X93700600Y-122631200D01*
X93510604Y-122585639D01*
X93356253Y-122464216D01*
X93249300Y-122289821D01*
X93202759Y-122090718D01*
X93548149Y-122090718D01*
X93561334Y-122206607D01*
X93582066Y-122241733D01*
X93674717Y-122275952D01*
X93776043Y-122248353D01*
X93822164Y-122195245D01*
X93849191Y-122049906D01*
X93824736Y-121927318D01*
X93762341Y-121849805D01*
X93675548Y-121839692D01*
X93624400Y-121869200D01*
X93571150Y-121960837D01*
X93548149Y-122090718D01*
X93202759Y-122090718D01*
X93201502Y-122085342D01*
X93224613Y-121873670D01*
X93262929Y-121778951D01*
X93405215Y-121583716D01*
X93574798Y-121480707D01*
X93759006Y-121472197D01*
X93945169Y-121560460D01*
X94034090Y-121640600D01*
X94201777Y-121818400D01*
X96066294Y-121818400D01*
X96246344Y-121513600D01*
X95247457Y-121513600D01*
X94881130Y-121144812D01*
X94710166Y-120968166D01*
X94599108Y-120837614D01*
X94533090Y-120730460D01*
X94497246Y-120624010D01*
X94481797Y-120535212D01*
X94457663Y-120398312D01*
X94970410Y-120398312D01*
X95016677Y-120497716D01*
X95145503Y-120646111D01*
X95184376Y-120686177D01*
X95398153Y-120904000D01*
X95844776Y-120904000D01*
X96067945Y-120900475D01*
X96205913Y-120888172D01*
X96274891Y-120864496D01*
X96291400Y-120832507D01*
X96255830Y-120764416D01*
X96162628Y-120654917D01*
X96033402Y-120529053D01*
X95775405Y-120297091D01*
X95373002Y-120299721D01*
X95143969Y-120308746D01*
X95011306Y-120338465D01*
X94970410Y-120398312D01*
X94457663Y-120398312D01*
X94456041Y-120389117D01*
X94419332Y-120318032D01*
X94353404Y-120295628D01*
X94314723Y-120294400D01*
X94223956Y-120271052D01*
X94105952Y-120194348D01*
X93947213Y-120054290D01*
X93817328Y-119926100D01*
X93454000Y-119557800D01*
X93384332Y-118539262D01*
X93631366Y-118147088D01*
X93768010Y-117930162D01*
X96382142Y-117930162D01*
X96388861Y-118069007D01*
X96397970Y-118097300D01*
X96470507Y-118194404D01*
X96568107Y-118197749D01*
X96649518Y-118132364D01*
X96686315Y-118026272D01*
X96665152Y-117905253D01*
X96600465Y-117810043D01*
X96524595Y-117779800D01*
X96431740Y-117822847D01*
X96382142Y-117930162D01*
X93768010Y-117930162D01*
X93878400Y-117754915D01*
X96027240Y-117754399D01*
X96205040Y-117576599D01*
X96331086Y-117471718D01*
X96448634Y-117407862D01*
X96492042Y-117398799D01*
X96695636Y-117444722D01*
G36*
X98677836Y-121508386D02*
G01*
X98784585Y-121651038D01*
X98830849Y-121850746D01*
X98831400Y-121877136D01*
X98790946Y-122076400D01*
X98684141Y-122224303D01*
X98532817Y-122309326D01*
X98358808Y-122319950D01*
X98183948Y-122244657D01*
X98163927Y-122229288D01*
X98084453Y-122139700D01*
X98049529Y-122017019D01*
X98044000Y-121894689D01*
X98046271Y-121862659D01*
X98171000Y-121862659D01*
X98204493Y-122052074D01*
X98295301Y-122173184D01*
X98428916Y-122215030D01*
X98580739Y-122172212D01*
X98648949Y-122103556D01*
X98676809Y-121976809D01*
X98679000Y-121902972D01*
X98657727Y-121713985D01*
X98587456Y-121605780D01*
X98458508Y-121565454D01*
X98425000Y-121564400D01*
X98276109Y-121596958D01*
X98193883Y-121700198D01*
X98171000Y-121862659D01*
X98046271Y-121862659D01*
X98055606Y-121731054D01*
X98102957Y-121621260D01*
X98191988Y-121529909D01*
X98361808Y-121437107D01*
X98530334Y-121433505D01*
X98677836Y-121508386D01*
G37*
X98677836Y-121508386D02*
X98784585Y-121651038D01*
X98830849Y-121850746D01*
X98831400Y-121877136D01*
X98790946Y-122076400D01*
X98684141Y-122224303D01*
X98532817Y-122309326D01*
X98358808Y-122319950D01*
X98183948Y-122244657D01*
X98163927Y-122229288D01*
X98084453Y-122139700D01*
X98049529Y-122017019D01*
X98044000Y-121894689D01*
X98046271Y-121862659D01*
X98171000Y-121862659D01*
X98204493Y-122052074D01*
X98295301Y-122173184D01*
X98428916Y-122215030D01*
X98580739Y-122172212D01*
X98648949Y-122103556D01*
X98676809Y-121976809D01*
X98679000Y-121902972D01*
X98657727Y-121713985D01*
X98587456Y-121605780D01*
X98458508Y-121565454D01*
X98425000Y-121564400D01*
X98276109Y-121596958D01*
X98193883Y-121700198D01*
X98171000Y-121862659D01*
X98046271Y-121862659D01*
X98055606Y-121731054D01*
X98102957Y-121621260D01*
X98191988Y-121529909D01*
X98361808Y-121437107D01*
X98530334Y-121433505D01*
X98677836Y-121508386D01*
G36*
X99100193Y-121482758D02*
G01*
X99123786Y-121554881D01*
X99134454Y-121697543D01*
X99136200Y-121843800D01*
X99136200Y-122224800D01*
X99339400Y-122224800D01*
X99466644Y-122236066D01*
X99537418Y-122264212D01*
X99542600Y-122275600D01*
X99498009Y-122302805D01*
X99388315Y-122320076D01*
X99249635Y-122326248D01*
X99118088Y-122320156D01*
X99029790Y-122300634D01*
X99017666Y-122292533D01*
X99001653Y-122228916D01*
X98989726Y-122090846D01*
X98984011Y-121905448D01*
X98983800Y-121860733D01*
X98987514Y-121654708D01*
X99000977Y-121531936D01*
X99027662Y-121474266D01*
X99060000Y-121462800D01*
X99100193Y-121482758D01*
G37*
X99100193Y-121482758D02*
X99123786Y-121554881D01*
X99134454Y-121697543D01*
X99136200Y-121843800D01*
X99136200Y-122224800D01*
X99339400Y-122224800D01*
X99466644Y-122236066D01*
X99537418Y-122264212D01*
X99542600Y-122275600D01*
X99498009Y-122302805D01*
X99388315Y-122320076D01*
X99249635Y-122326248D01*
X99118088Y-122320156D01*
X99029790Y-122300634D01*
X99017666Y-122292533D01*
X99001653Y-122228916D01*
X98989726Y-122090846D01*
X98984011Y-121905448D01*
X98983800Y-121860733D01*
X98987514Y-121654708D01*
X99000977Y-121531936D01*
X99027662Y-121474266D01*
X99060000Y-121462800D01*
X99100193Y-121482758D01*
G36*
X100280007Y-121509688D02*
G01*
X100298065Y-121634928D01*
X100304600Y-121810526D01*
X100297975Y-122015088D01*
X100274348Y-122144857D01*
X100228088Y-122226001D01*
X100211699Y-122242326D01*
X100069741Y-122315066D01*
X99908242Y-122320387D01*
X99768218Y-122260712D01*
X99723280Y-122213496D01*
X99677389Y-122103127D01*
X99649599Y-121948150D01*
X99640024Y-121777599D01*
X99648773Y-121620506D01*
X99675958Y-121505905D01*
X99720400Y-121462800D01*
X99761849Y-121483752D01*
X99785547Y-121559073D01*
X99795511Y-121707462D01*
X99796600Y-121817432D01*
X99798791Y-122003789D01*
X99811013Y-122112958D01*
X99841738Y-122169338D01*
X99899440Y-122197328D01*
X99931504Y-122205923D01*
X100060075Y-122205063D01*
X100145917Y-122123154D01*
X100192238Y-121954898D01*
X100203000Y-121757890D01*
X100210937Y-121599527D01*
X100231548Y-121492583D01*
X100253800Y-121462800D01*
X100280007Y-121509688D01*
G37*
X100280007Y-121509688D02*
X100298065Y-121634928D01*
X100304600Y-121810526D01*
X100297975Y-122015088D01*
X100274348Y-122144857D01*
X100228088Y-122226001D01*
X100211699Y-122242326D01*
X100069741Y-122315066D01*
X99908242Y-122320387D01*
X99768218Y-122260712D01*
X99723280Y-122213496D01*
X99677389Y-122103127D01*
X99649599Y-121948150D01*
X99640024Y-121777599D01*
X99648773Y-121620506D01*
X99675958Y-121505905D01*
X99720400Y-121462800D01*
X99761849Y-121483752D01*
X99785547Y-121559073D01*
X99795511Y-121707462D01*
X99796600Y-121817432D01*
X99798791Y-122003789D01*
X99811013Y-122112958D01*
X99841738Y-122169338D01*
X99899440Y-122197328D01*
X99931504Y-122205923D01*
X100060075Y-122205063D01*
X100145917Y-122123154D01*
X100192238Y-121954898D01*
X100203000Y-121757890D01*
X100210937Y-121599527D01*
X100231548Y-121492583D01*
X100253800Y-121462800D01*
X100280007Y-121509688D01*
G36*
X100995413Y-121468923D02*
G01*
X101115477Y-121486515D01*
X101142800Y-121513600D01*
X101072644Y-121553189D01*
X100989627Y-121564400D01*
X100926264Y-121570802D01*
X100888450Y-121604544D01*
X100868002Y-121687430D01*
X100856737Y-121841264D01*
X100852925Y-121928636D01*
X100835036Y-122147707D01*
X100803754Y-122278638D01*
X100774500Y-122313869D01*
X100740297Y-122296532D01*
X100720075Y-122208256D01*
X100711603Y-122036244D01*
X100711000Y-121949633D01*
X100711000Y-121564400D01*
X100558600Y-121564400D01*
X100451594Y-121549685D01*
X100406211Y-121514232D01*
X100406200Y-121513600D01*
X100453506Y-121488056D01*
X100581701Y-121470234D01*
X100770195Y-121462858D01*
X100790198Y-121462800D01*
X100995413Y-121468923D01*
G37*
X100995413Y-121468923D02*
X101115477Y-121486515D01*
X101142800Y-121513600D01*
X101072644Y-121553189D01*
X100989627Y-121564400D01*
X100926264Y-121570802D01*
X100888450Y-121604544D01*
X100868002Y-121687430D01*
X100856737Y-121841264D01*
X100852925Y-121928636D01*
X100835036Y-122147707D01*
X100803754Y-122278638D01*
X100774500Y-122313869D01*
X100740297Y-122296532D01*
X100720075Y-122208256D01*
X100711603Y-122036244D01*
X100711000Y-121949633D01*
X100711000Y-121564400D01*
X100558600Y-121564400D01*
X100451594Y-121549685D01*
X100406211Y-121514232D01*
X100406200Y-121513600D01*
X100453506Y-121488056D01*
X100581701Y-121470234D01*
X100770195Y-121462858D01*
X100790198Y-121462800D01*
X100995413Y-121468923D01*
G36*
X101524389Y-121469689D02*
G01*
X101554560Y-121494735D01*
X101533960Y-121523759D01*
X101502965Y-121599300D01*
X101482832Y-121732687D01*
X101474008Y-121892895D01*
X101476944Y-122048897D01*
X101492090Y-122169668D01*
X101519895Y-122224180D01*
X101523800Y-122224800D01*
X101573123Y-122263457D01*
X101574600Y-122275600D01*
X101529942Y-122309177D01*
X101420133Y-122325961D01*
X101396800Y-122326400D01*
X101279279Y-122313640D01*
X101220535Y-122282266D01*
X101219000Y-122275600D01*
X101257657Y-122226276D01*
X101269800Y-122224800D01*
X101296346Y-122178145D01*
X101314520Y-122054556D01*
X101320600Y-121894600D01*
X101313422Y-121722050D01*
X101294408Y-121603914D01*
X101269800Y-121564400D01*
X101220476Y-121525742D01*
X101219000Y-121513600D01*
X101263831Y-121480763D01*
X101374818Y-121463548D01*
X101406960Y-121462800D01*
X101524389Y-121469689D01*
G37*
X101524389Y-121469689D02*
X101554560Y-121494735D01*
X101533960Y-121523759D01*
X101502965Y-121599300D01*
X101482832Y-121732687D01*
X101474008Y-121892895D01*
X101476944Y-122048897D01*
X101492090Y-122169668D01*
X101519895Y-122224180D01*
X101523800Y-122224800D01*
X101573123Y-122263457D01*
X101574600Y-122275600D01*
X101529942Y-122309177D01*
X101420133Y-122325961D01*
X101396800Y-122326400D01*
X101279279Y-122313640D01*
X101220535Y-122282266D01*
X101219000Y-122275600D01*
X101257657Y-122226276D01*
X101269800Y-122224800D01*
X101296346Y-122178145D01*
X101314520Y-122054556D01*
X101320600Y-121894600D01*
X101313422Y-121722050D01*
X101294408Y-121603914D01*
X101269800Y-121564400D01*
X101220476Y-121525742D01*
X101219000Y-121513600D01*
X101263831Y-121480763D01*
X101374818Y-121463548D01*
X101406960Y-121462800D01*
X101524389Y-121469689D01*
G36*
X102182072Y-121436932D02*
G01*
X102342153Y-121514339D01*
X102443743Y-121647408D01*
X102488897Y-121812609D01*
X102479673Y-121986417D01*
X102418128Y-122145302D01*
X102306319Y-122265736D01*
X102146302Y-122324193D01*
X102104312Y-122326400D01*
X101937504Y-122294267D01*
X101833772Y-122229972D01*
X101726751Y-122066707D01*
X101694244Y-121886315D01*
X101698038Y-121865769D01*
X101826289Y-121865769D01*
X101862639Y-122031853D01*
X101907680Y-122111896D01*
X102015589Y-122208668D01*
X102147107Y-122211349D01*
X102234210Y-122174422D01*
X102338082Y-122070393D01*
X102374332Y-121928321D01*
X102350383Y-121778198D01*
X102273661Y-121650019D01*
X102151588Y-121573775D01*
X102083216Y-121564400D01*
X101944791Y-121606424D01*
X101856411Y-121715420D01*
X101826289Y-121865769D01*
X101698038Y-121865769D01*
X101726705Y-121710527D01*
X101814591Y-121561073D01*
X101948358Y-121459684D01*
X102118462Y-121428091D01*
X102182072Y-121436932D01*
G37*
X102182072Y-121436932D02*
X102342153Y-121514339D01*
X102443743Y-121647408D01*
X102488897Y-121812609D01*
X102479673Y-121986417D01*
X102418128Y-122145302D01*
X102306319Y-122265736D01*
X102146302Y-122324193D01*
X102104312Y-122326400D01*
X101937504Y-122294267D01*
X101833772Y-122229972D01*
X101726751Y-122066707D01*
X101694244Y-121886315D01*
X101698038Y-121865769D01*
X101826289Y-121865769D01*
X101862639Y-122031853D01*
X101907680Y-122111896D01*
X102015589Y-122208668D01*
X102147107Y-122211349D01*
X102234210Y-122174422D01*
X102338082Y-122070393D01*
X102374332Y-121928321D01*
X102350383Y-121778198D01*
X102273661Y-121650019D01*
X102151588Y-121573775D01*
X102083216Y-121564400D01*
X101944791Y-121606424D01*
X101856411Y-121715420D01*
X101826289Y-121865769D01*
X101698038Y-121865769D01*
X101726705Y-121710527D01*
X101814591Y-121561073D01*
X101948358Y-121459684D01*
X102118462Y-121428091D01*
X102182072Y-121436932D01*
G36*
X103315883Y-121483135D02*
G01*
X103338554Y-121555484D01*
X103349824Y-121696861D01*
X103352600Y-121898324D01*
X103350296Y-122110115D01*
X103340905Y-122238685D01*
X103320703Y-122302359D01*
X103285969Y-122319462D01*
X103267468Y-122317424D01*
X103204314Y-122267387D01*
X103113359Y-122149490D01*
X103011948Y-121986891D01*
X102988856Y-121945400D01*
X102795375Y-121589800D01*
X102794587Y-121958100D01*
X102787691Y-122144838D01*
X102769931Y-122274853D01*
X102744371Y-122326283D01*
X102743000Y-122326400D01*
X102718260Y-122278644D01*
X102700741Y-122147301D01*
X102692545Y-121950252D01*
X102692200Y-121894600D01*
X102694521Y-121683379D01*
X102704221Y-121554247D01*
X102725401Y-121487743D01*
X102762162Y-121464408D01*
X102783217Y-121462800D01*
X102866415Y-121511487D01*
X102969430Y-121654598D01*
X103024517Y-121754900D01*
X103174800Y-122047000D01*
X103190035Y-121754900D01*
X103207228Y-121576977D01*
X103238340Y-121484936D01*
X103278935Y-121462800D01*
X103315883Y-121483135D01*
G37*
X103315883Y-121483135D02*
X103338554Y-121555484D01*
X103349824Y-121696861D01*
X103352600Y-121898324D01*
X103350296Y-122110115D01*
X103340905Y-122238685D01*
X103320703Y-122302359D01*
X103285969Y-122319462D01*
X103267468Y-122317424D01*
X103204314Y-122267387D01*
X103113359Y-122149490D01*
X103011948Y-121986891D01*
X102988856Y-121945400D01*
X102795375Y-121589800D01*
X102794587Y-121958100D01*
X102787691Y-122144838D01*
X102769931Y-122274853D01*
X102744371Y-122326283D01*
X102743000Y-122326400D01*
X102718260Y-122278644D01*
X102700741Y-122147301D01*
X102692545Y-121950252D01*
X102692200Y-121894600D01*
X102694521Y-121683379D01*
X102704221Y-121554247D01*
X102725401Y-121487743D01*
X102762162Y-121464408D01*
X102783217Y-121462800D01*
X102866415Y-121511487D01*
X102969430Y-121654598D01*
X103024517Y-121754900D01*
X103174800Y-122047000D01*
X103190035Y-121754900D01*
X103207228Y-121576977D01*
X103238340Y-121484936D01*
X103278935Y-121462800D01*
X103315883Y-121483135D01*
G36*
X104029574Y-121459444D02*
G01*
X104140378Y-121515749D01*
X104153220Y-121559505D01*
X104071400Y-121586478D01*
X103925561Y-121592992D01*
X103770933Y-121599601D01*
X103692441Y-121630035D01*
X103668186Y-121676885D01*
X103690713Y-121752282D01*
X103793724Y-121794700D01*
X103995907Y-121849616D01*
X104113000Y-121914201D01*
X104161505Y-121999446D01*
X104165400Y-122042282D01*
X104122996Y-122196858D01*
X104002372Y-122292842D01*
X103818871Y-122322389D01*
X103677418Y-122313083D01*
X103576488Y-122295559D01*
X103568500Y-122292756D01*
X103511337Y-122225897D01*
X103505000Y-122189731D01*
X103532312Y-122137623D01*
X103593900Y-122150349D01*
X103786299Y-122206919D01*
X103936754Y-122200083D01*
X104007562Y-122155151D01*
X104048372Y-122061474D01*
X103993119Y-121991507D01*
X103839951Y-121942944D01*
X103836738Y-121942336D01*
X103690482Y-121891739D01*
X103577948Y-121814785D01*
X103576460Y-121813163D01*
X103519038Y-121695514D01*
X103544282Y-121584202D01*
X103633587Y-121493750D01*
X103768352Y-121438679D01*
X103929970Y-121433513D01*
X104029574Y-121459444D01*
G37*
X104029574Y-121459444D02*
X104140378Y-121515749D01*
X104153220Y-121559505D01*
X104071400Y-121586478D01*
X103925561Y-121592992D01*
X103770933Y-121599601D01*
X103692441Y-121630035D01*
X103668186Y-121676885D01*
X103690713Y-121752282D01*
X103793724Y-121794700D01*
X103995907Y-121849616D01*
X104113000Y-121914201D01*
X104161505Y-121999446D01*
X104165400Y-122042282D01*
X104122996Y-122196858D01*
X104002372Y-122292842D01*
X103818871Y-122322389D01*
X103677418Y-122313083D01*
X103576488Y-122295559D01*
X103568500Y-122292756D01*
X103511337Y-122225897D01*
X103505000Y-122189731D01*
X103532312Y-122137623D01*
X103593900Y-122150349D01*
X103786299Y-122206919D01*
X103936754Y-122200083D01*
X104007562Y-122155151D01*
X104048372Y-122061474D01*
X103993119Y-121991507D01*
X103839951Y-121942944D01*
X103836738Y-121942336D01*
X103690482Y-121891739D01*
X103577948Y-121814785D01*
X103576460Y-121813163D01*
X103519038Y-121695514D01*
X103544282Y-121584202D01*
X103633587Y-121493750D01*
X103768352Y-121438679D01*
X103929970Y-121433513D01*
X104029574Y-121459444D01*
G36*
X97321576Y-119995903D02*
G01*
X97455384Y-120012966D01*
X97510243Y-120038017D01*
X97510600Y-120040400D01*
X97466456Y-120076068D01*
X97360096Y-120091196D01*
X97358200Y-120091200D01*
X97205800Y-120091200D01*
X97205800Y-120472200D01*
X97201808Y-120673167D01*
X97187383Y-120791132D01*
X97158851Y-120844470D01*
X97129600Y-120853200D01*
X97089406Y-120833241D01*
X97065813Y-120761118D01*
X97055145Y-120618456D01*
X97053400Y-120472200D01*
X97053400Y-120091200D01*
X96901000Y-120091200D01*
X96793994Y-120076485D01*
X96748611Y-120041032D01*
X96748600Y-120040400D01*
X96795875Y-120014803D01*
X96923846Y-119996962D01*
X97111733Y-119989647D01*
X97129600Y-119989600D01*
X97321576Y-119995903D01*
G37*
X97321576Y-119995903D02*
X97455384Y-120012966D01*
X97510243Y-120038017D01*
X97510600Y-120040400D01*
X97466456Y-120076068D01*
X97360096Y-120091196D01*
X97358200Y-120091200D01*
X97205800Y-120091200D01*
X97205800Y-120472200D01*
X97201808Y-120673167D01*
X97187383Y-120791132D01*
X97158851Y-120844470D01*
X97129600Y-120853200D01*
X97089406Y-120833241D01*
X97065813Y-120761118D01*
X97055145Y-120618456D01*
X97053400Y-120472200D01*
X97053400Y-120091200D01*
X96901000Y-120091200D01*
X96793994Y-120076485D01*
X96748611Y-120041032D01*
X96748600Y-120040400D01*
X96795875Y-120014803D01*
X96923846Y-119996962D01*
X97111733Y-119989647D01*
X97129600Y-119989600D01*
X97321576Y-119995903D01*
G36*
X97924792Y-120082134D02*
G01*
X98009362Y-120250040D01*
X98074668Y-120418564D01*
X98149821Y-120624458D01*
X98194551Y-120752706D01*
X98212063Y-120821535D01*
X98205563Y-120849172D01*
X98178255Y-120853844D01*
X98151107Y-120853200D01*
X98087175Y-120809889D01*
X98048539Y-120726200D01*
X98007836Y-120638114D01*
X97923424Y-120603335D01*
X97838574Y-120599200D01*
X97706435Y-120615133D01*
X97634906Y-120677117D01*
X97612200Y-120726200D01*
X97559975Y-120813408D01*
X97500991Y-120856268D01*
X97463244Y-120838401D01*
X97460227Y-120815100D01*
X97476991Y-120752527D01*
X97521095Y-120620489D01*
X97583908Y-120444541D01*
X97601778Y-120396000D01*
X97602679Y-120393810D01*
X97723057Y-120393810D01*
X97739254Y-120472457D01*
X97832794Y-120497586D01*
X97836045Y-120497600D01*
X97913879Y-120490399D01*
X97935693Y-120449776D01*
X97912040Y-120347199D01*
X97902850Y-120316962D01*
X97864649Y-120201999D01*
X97836575Y-120174134D01*
X97799365Y-120223211D01*
X97782406Y-120253462D01*
X97723057Y-120393810D01*
X97602679Y-120393810D01*
X97694609Y-120170395D01*
X97774599Y-120042655D01*
X97848932Y-120013120D01*
X97924792Y-120082134D01*
G37*
X97924792Y-120082134D02*
X98009362Y-120250040D01*
X98074668Y-120418564D01*
X98149821Y-120624458D01*
X98194551Y-120752706D01*
X98212063Y-120821535D01*
X98205563Y-120849172D01*
X98178255Y-120853844D01*
X98151107Y-120853200D01*
X98087175Y-120809889D01*
X98048539Y-120726200D01*
X98007836Y-120638114D01*
X97923424Y-120603335D01*
X97838574Y-120599200D01*
X97706435Y-120615133D01*
X97634906Y-120677117D01*
X97612200Y-120726200D01*
X97559975Y-120813408D01*
X97500991Y-120856268D01*
X97463244Y-120838401D01*
X97460227Y-120815100D01*
X97476991Y-120752527D01*
X97521095Y-120620489D01*
X97583908Y-120444541D01*
X97601778Y-120396000D01*
X97602679Y-120393810D01*
X97723057Y-120393810D01*
X97739254Y-120472457D01*
X97832794Y-120497586D01*
X97836045Y-120497600D01*
X97913879Y-120490399D01*
X97935693Y-120449776D01*
X97912040Y-120347199D01*
X97902850Y-120316962D01*
X97864649Y-120201999D01*
X97836575Y-120174134D01*
X97799365Y-120223211D01*
X97782406Y-120253462D01*
X97723057Y-120393810D01*
X97602679Y-120393810D01*
X97694609Y-120170395D01*
X97774599Y-120042655D01*
X97848932Y-120013120D01*
X97924792Y-120082134D01*
G36*
X98999113Y-120005201D02*
G01*
X99020800Y-120064486D01*
X99028353Y-120186179D01*
X99024615Y-120389000D01*
X99023954Y-120408138D01*
X99006987Y-120652580D01*
X98974509Y-120797256D01*
X98922984Y-120843290D01*
X98848878Y-120791807D01*
X98748656Y-120643931D01*
X98679000Y-120517907D01*
X98501200Y-120181417D01*
X98486178Y-120517308D01*
X98471608Y-120708523D01*
X98446390Y-120814757D01*
X98406178Y-120852431D01*
X98397278Y-120853200D01*
X98360239Y-120833040D01*
X98337516Y-120761178D01*
X98326209Y-120620536D01*
X98323400Y-120417866D01*
X98324822Y-120207872D01*
X98332430Y-120080290D01*
X98351238Y-120015941D01*
X98386259Y-119995645D01*
X98432944Y-119998766D01*
X98532735Y-120060216D01*
X98652407Y-120218791D01*
X98711738Y-120319800D01*
X98880988Y-120624600D01*
X98881594Y-120307100D01*
X98887152Y-120126976D01*
X98906224Y-120028367D01*
X98943709Y-119991551D01*
X98960454Y-119989600D01*
X98999113Y-120005201D01*
G37*
X98999113Y-120005201D02*
X99020800Y-120064486D01*
X99028353Y-120186179D01*
X99024615Y-120389000D01*
X99023954Y-120408138D01*
X99006987Y-120652580D01*
X98974509Y-120797256D01*
X98922984Y-120843290D01*
X98848878Y-120791807D01*
X98748656Y-120643931D01*
X98679000Y-120517907D01*
X98501200Y-120181417D01*
X98486178Y-120517308D01*
X98471608Y-120708523D01*
X98446390Y-120814757D01*
X98406178Y-120852431D01*
X98397278Y-120853200D01*
X98360239Y-120833040D01*
X98337516Y-120761178D01*
X98326209Y-120620536D01*
X98323400Y-120417866D01*
X98324822Y-120207872D01*
X98332430Y-120080290D01*
X98351238Y-120015941D01*
X98386259Y-119995645D01*
X98432944Y-119998766D01*
X98532735Y-120060216D01*
X98652407Y-120218791D01*
X98711738Y-120319800D01*
X98880988Y-120624600D01*
X98881594Y-120307100D01*
X98887152Y-120126976D01*
X98906224Y-120028367D01*
X98943709Y-119991551D01*
X98960454Y-119989600D01*
X98999113Y-120005201D01*
G36*
X99314196Y-120036875D02*
G01*
X99332037Y-120164846D01*
X99339352Y-120352733D01*
X99339400Y-120370600D01*
X99339400Y-120751600D01*
X99568000Y-120751600D01*
X99704331Y-120761689D01*
X99786110Y-120787218D01*
X99796600Y-120802400D01*
X99750668Y-120830219D01*
X99632185Y-120848671D01*
X99517200Y-120853200D01*
X99237800Y-120853200D01*
X99237800Y-120421400D01*
X99243418Y-120211115D01*
X99258870Y-120062200D01*
X99282052Y-119992539D01*
X99288600Y-119989600D01*
X99314196Y-120036875D01*
G37*
X99314196Y-120036875D02*
X99332037Y-120164846D01*
X99339352Y-120352733D01*
X99339400Y-120370600D01*
X99339400Y-120751600D01*
X99568000Y-120751600D01*
X99704331Y-120761689D01*
X99786110Y-120787218D01*
X99796600Y-120802400D01*
X99750668Y-120830219D01*
X99632185Y-120848671D01*
X99517200Y-120853200D01*
X99237800Y-120853200D01*
X99237800Y-120421400D01*
X99243418Y-120211115D01*
X99258870Y-120062200D01*
X99282052Y-119992539D01*
X99288600Y-119989600D01*
X99314196Y-120036875D01*
G36*
X100330608Y-119997951D02*
G01*
X100432093Y-120019493D01*
X100457000Y-120040400D01*
X100411595Y-120070695D01*
X100296717Y-120088869D01*
X100228400Y-120091200D01*
X100087335Y-120096463D01*
X100020500Y-120122337D01*
X100000673Y-120183945D01*
X99999800Y-120218200D01*
X100009274Y-120296569D01*
X100055848Y-120333699D01*
X100166741Y-120344714D01*
X100228400Y-120345200D01*
X100364731Y-120355289D01*
X100446510Y-120380818D01*
X100457000Y-120396000D01*
X100411595Y-120426295D01*
X100296717Y-120444469D01*
X100228400Y-120446800D01*
X100087830Y-120451217D01*
X100021251Y-120476725D01*
X100001092Y-120541705D01*
X99999800Y-120599200D01*
X100006426Y-120692913D01*
X100044688Y-120737298D01*
X100142158Y-120750738D01*
X100228400Y-120751600D01*
X100364731Y-120761689D01*
X100446510Y-120787218D01*
X100457000Y-120802400D01*
X100411068Y-120830219D01*
X100292585Y-120848671D01*
X100177600Y-120853200D01*
X99898200Y-120853200D01*
X99898200Y-119989600D01*
X100177600Y-119989600D01*
X100330608Y-119997951D01*
G37*
X100330608Y-119997951D02*
X100432093Y-120019493D01*
X100457000Y-120040400D01*
X100411595Y-120070695D01*
X100296717Y-120088869D01*
X100228400Y-120091200D01*
X100087335Y-120096463D01*
X100020500Y-120122337D01*
X100000673Y-120183945D01*
X99999800Y-120218200D01*
X100009274Y-120296569D01*
X100055848Y-120333699D01*
X100166741Y-120344714D01*
X100228400Y-120345200D01*
X100364731Y-120355289D01*
X100446510Y-120380818D01*
X100457000Y-120396000D01*
X100411595Y-120426295D01*
X100296717Y-120444469D01*
X100228400Y-120446800D01*
X100087830Y-120451217D01*
X100021251Y-120476725D01*
X100001092Y-120541705D01*
X99999800Y-120599200D01*
X100006426Y-120692913D01*
X100044688Y-120737298D01*
X100142158Y-120750738D01*
X100228400Y-120751600D01*
X100364731Y-120761689D01*
X100446510Y-120787218D01*
X100457000Y-120802400D01*
X100411068Y-120830219D01*
X100292585Y-120848671D01*
X100177600Y-120853200D01*
X99898200Y-120853200D01*
X99898200Y-119989600D01*
X100177600Y-119989600D01*
X100330608Y-119997951D01*
G36*
X101210941Y-120001824D02*
G01*
X101204590Y-120050300D01*
X101145293Y-120152735D01*
X101092000Y-120232687D01*
X100984081Y-120470175D01*
X100965000Y-120636392D01*
X100953939Y-120782752D01*
X100916731Y-120846713D01*
X100888800Y-120853200D01*
X100833454Y-120816208D01*
X100812990Y-120696687D01*
X100812600Y-120668318D01*
X100774394Y-120472496D01*
X100667633Y-120247960D01*
X100660669Y-120236518D01*
X100577116Y-120086928D01*
X100555425Y-120007729D01*
X100580326Y-119989600D01*
X100649711Y-120029494D01*
X100736316Y-120129215D01*
X100763643Y-120170382D01*
X100875373Y-120351164D01*
X100998217Y-120170382D01*
X101084184Y-120059209D01*
X101153646Y-119995491D01*
X101170031Y-119989600D01*
X101210941Y-120001824D01*
G37*
X101210941Y-120001824D02*
X101204590Y-120050300D01*
X101145293Y-120152735D01*
X101092000Y-120232687D01*
X100984081Y-120470175D01*
X100965000Y-120636392D01*
X100953939Y-120782752D01*
X100916731Y-120846713D01*
X100888800Y-120853200D01*
X100833454Y-120816208D01*
X100812990Y-120696687D01*
X100812600Y-120668318D01*
X100774394Y-120472496D01*
X100667633Y-120247960D01*
X100660669Y-120236518D01*
X100577116Y-120086928D01*
X100555425Y-120007729D01*
X100580326Y-119989600D01*
X100649711Y-120029494D01*
X100736316Y-120129215D01*
X100763643Y-120170382D01*
X100875373Y-120351164D01*
X100998217Y-120170382D01*
X101084184Y-120059209D01*
X101153646Y-119995491D01*
X101170031Y-119989600D01*
X101210941Y-120001824D01*
D12*
%TO.C,J3*%
X105273845Y-110883353D02*
G75*
G03*
X105274000Y-112383000I1700155J-749647D01*
G01*
X105273845Y-115963353D02*
G75*
G03*
X105274000Y-117463000I1700155J-749647D01*
G01*
X98664000Y-119363000D02*
X106134000Y-119363000D01*
X106134000Y-119363000D02*
X106134000Y-108983000D01*
X106134000Y-108983000D02*
X98664000Y-108983000D01*
X98664000Y-108983000D02*
X98664000Y-119363000D01*
X105274000Y-117463000D02*
X105274000Y-118213000D01*
X105274000Y-118213000D02*
X100974000Y-118213000D01*
X100974000Y-118213000D02*
X100974000Y-117463000D01*
X100974000Y-117463000D02*
X100624000Y-117463000D01*
X100624000Y-117463000D02*
X100624000Y-117963000D01*
X100624000Y-117963000D02*
X99624000Y-118213000D01*
X99624000Y-118213000D02*
X99624000Y-115213000D01*
X99624000Y-115213000D02*
X100624000Y-115463000D01*
X100624000Y-115463000D02*
X100624000Y-115963000D01*
X100624000Y-115963000D02*
X100974000Y-115963000D01*
X100974000Y-115963000D02*
X100974000Y-115213000D01*
X100974000Y-115213000D02*
X105274000Y-115213000D01*
X105274000Y-115213000D02*
X105274000Y-115963000D01*
X105274000Y-112383000D02*
X105274000Y-113133000D01*
X105274000Y-113133000D02*
X100974000Y-113133000D01*
X100974000Y-113133000D02*
X100974000Y-112383000D01*
X100974000Y-112383000D02*
X100624000Y-112383000D01*
X100624000Y-112383000D02*
X100624000Y-112883000D01*
X100624000Y-112883000D02*
X99624000Y-113133000D01*
X99624000Y-113133000D02*
X99624000Y-110133000D01*
X99624000Y-110133000D02*
X100624000Y-110383000D01*
X100624000Y-110383000D02*
X100624000Y-110883000D01*
X100624000Y-110883000D02*
X100974000Y-110883000D01*
X100974000Y-110883000D02*
X100974000Y-110133000D01*
X100974000Y-110133000D02*
X105274000Y-110133000D01*
X105274000Y-110133000D02*
X105274000Y-110883000D01*
X99524000Y-119753000D02*
X98274000Y-119753000D01*
X98274000Y-119753000D02*
X98274000Y-117753000D01*
%TO.C,J2*%
X127876647Y-118862845D02*
G75*
G03*
X126377000Y-118863000I-749647J-1700155D01*
G01*
X122796647Y-118862845D02*
G75*
G03*
X121297000Y-118863000I-749647J-1700155D01*
G01*
X117716647Y-118862845D02*
G75*
G03*
X116217000Y-118863000I-749647J-1700155D01*
G01*
X112636647Y-118862845D02*
G75*
G03*
X111137000Y-118863000I-749647J-1700155D01*
G01*
X109237000Y-112253000D02*
X109237000Y-119723000D01*
X109237000Y-119723000D02*
X129777000Y-119723000D01*
X129777000Y-119723000D02*
X129777000Y-112253000D01*
X129777000Y-112253000D02*
X109237000Y-112253000D01*
X111137000Y-118863000D02*
X110387000Y-118863000D01*
X110387000Y-118863000D02*
X110387000Y-114563000D01*
X110387000Y-114563000D02*
X111137000Y-114563000D01*
X111137000Y-114563000D02*
X111137000Y-114213000D01*
X111137000Y-114213000D02*
X110637000Y-114213000D01*
X110637000Y-114213000D02*
X110387000Y-113213000D01*
X110387000Y-113213000D02*
X113387000Y-113213000D01*
X113387000Y-113213000D02*
X113137000Y-114213000D01*
X113137000Y-114213000D02*
X112637000Y-114213000D01*
X112637000Y-114213000D02*
X112637000Y-114563000D01*
X112637000Y-114563000D02*
X113387000Y-114563000D01*
X113387000Y-114563000D02*
X113387000Y-118863000D01*
X113387000Y-118863000D02*
X112637000Y-118863000D01*
X116217000Y-118863000D02*
X115467000Y-118863000D01*
X115467000Y-118863000D02*
X115467000Y-114563000D01*
X115467000Y-114563000D02*
X116217000Y-114563000D01*
X116217000Y-114563000D02*
X116217000Y-114213000D01*
X116217000Y-114213000D02*
X115717000Y-114213000D01*
X115717000Y-114213000D02*
X115467000Y-113213000D01*
X115467000Y-113213000D02*
X118467000Y-113213000D01*
X118467000Y-113213000D02*
X118217000Y-114213000D01*
X118217000Y-114213000D02*
X117717000Y-114213000D01*
X117717000Y-114213000D02*
X117717000Y-114563000D01*
X117717000Y-114563000D02*
X118467000Y-114563000D01*
X118467000Y-114563000D02*
X118467000Y-118863000D01*
X118467000Y-118863000D02*
X117717000Y-118863000D01*
X121297000Y-118863000D02*
X120547000Y-118863000D01*
X120547000Y-118863000D02*
X120547000Y-114563000D01*
X120547000Y-114563000D02*
X121297000Y-114563000D01*
X121297000Y-114563000D02*
X121297000Y-114213000D01*
X121297000Y-114213000D02*
X120797000Y-114213000D01*
X120797000Y-114213000D02*
X120547000Y-113213000D01*
X120547000Y-113213000D02*
X123547000Y-113213000D01*
X123547000Y-113213000D02*
X123297000Y-114213000D01*
X123297000Y-114213000D02*
X122797000Y-114213000D01*
X122797000Y-114213000D02*
X122797000Y-114563000D01*
X122797000Y-114563000D02*
X123547000Y-114563000D01*
X123547000Y-114563000D02*
X123547000Y-118863000D01*
X123547000Y-118863000D02*
X122797000Y-118863000D01*
X126377000Y-118863000D02*
X125627000Y-118863000D01*
X125627000Y-118863000D02*
X125627000Y-114563000D01*
X125627000Y-114563000D02*
X126377000Y-114563000D01*
X126377000Y-114563000D02*
X126377000Y-114213000D01*
X126377000Y-114213000D02*
X125877000Y-114213000D01*
X125877000Y-114213000D02*
X125627000Y-113213000D01*
X125627000Y-113213000D02*
X128627000Y-113213000D01*
X128627000Y-113213000D02*
X128377000Y-114213000D01*
X128377000Y-114213000D02*
X127877000Y-114213000D01*
X127877000Y-114213000D02*
X127877000Y-114563000D01*
X127877000Y-114563000D02*
X128627000Y-114563000D01*
X128627000Y-114563000D02*
X128627000Y-118863000D01*
X128627000Y-118863000D02*
X127877000Y-118863000D01*
X108847000Y-113113000D02*
X108847000Y-111863000D01*
X108847000Y-111863000D02*
X110847000Y-111863000D01*
%TO.C,J1*%
X105146845Y-88785353D02*
G75*
G03*
X105147000Y-90285000I1700155J-749647D01*
G01*
X105146845Y-93865353D02*
G75*
G03*
X105147000Y-95365000I1700155J-749647D01*
G01*
X105146845Y-98945353D02*
G75*
G03*
X105147000Y-100445000I1700155J-749647D01*
G01*
X105146845Y-104025353D02*
G75*
G03*
X105147000Y-105525000I1700155J-749647D01*
G01*
X98537000Y-107425000D02*
X106007000Y-107425000D01*
X106007000Y-107425000D02*
X106007000Y-86885000D01*
X106007000Y-86885000D02*
X98537000Y-86885000D01*
X98537000Y-86885000D02*
X98537000Y-107425000D01*
X105147000Y-105525000D02*
X105147000Y-106275000D01*
X105147000Y-106275000D02*
X100847000Y-106275000D01*
X100847000Y-106275000D02*
X100847000Y-105525000D01*
X100847000Y-105525000D02*
X100497000Y-105525000D01*
X100497000Y-105525000D02*
X100497000Y-106025000D01*
X100497000Y-106025000D02*
X99497000Y-106275000D01*
X99497000Y-106275000D02*
X99497000Y-103275000D01*
X99497000Y-103275000D02*
X100497000Y-103525000D01*
X100497000Y-103525000D02*
X100497000Y-104025000D01*
X100497000Y-104025000D02*
X100847000Y-104025000D01*
X100847000Y-104025000D02*
X100847000Y-103275000D01*
X100847000Y-103275000D02*
X105147000Y-103275000D01*
X105147000Y-103275000D02*
X105147000Y-104025000D01*
X105147000Y-100445000D02*
X105147000Y-101195000D01*
X105147000Y-101195000D02*
X100847000Y-101195000D01*
X100847000Y-101195000D02*
X100847000Y-100445000D01*
X100847000Y-100445000D02*
X100497000Y-100445000D01*
X100497000Y-100445000D02*
X100497000Y-100945000D01*
X100497000Y-100945000D02*
X99497000Y-101195000D01*
X99497000Y-101195000D02*
X99497000Y-98195000D01*
X99497000Y-98195000D02*
X100497000Y-98445000D01*
X100497000Y-98445000D02*
X100497000Y-98945000D01*
X100497000Y-98945000D02*
X100847000Y-98945000D01*
X100847000Y-98945000D02*
X100847000Y-98195000D01*
X100847000Y-98195000D02*
X105147000Y-98195000D01*
X105147000Y-98195000D02*
X105147000Y-98945000D01*
X105147000Y-95365000D02*
X105147000Y-96115000D01*
X105147000Y-96115000D02*
X100847000Y-96115000D01*
X100847000Y-96115000D02*
X100847000Y-95365000D01*
X100847000Y-95365000D02*
X100497000Y-95365000D01*
X100497000Y-95365000D02*
X100497000Y-95865000D01*
X100497000Y-95865000D02*
X99497000Y-96115000D01*
X99497000Y-96115000D02*
X99497000Y-93115000D01*
X99497000Y-93115000D02*
X100497000Y-93365000D01*
X100497000Y-93365000D02*
X100497000Y-93865000D01*
X100497000Y-93865000D02*
X100847000Y-93865000D01*
X100847000Y-93865000D02*
X100847000Y-93115000D01*
X100847000Y-93115000D02*
X105147000Y-93115000D01*
X105147000Y-93115000D02*
X105147000Y-93865000D01*
X105147000Y-90285000D02*
X105147000Y-91035000D01*
X105147000Y-91035000D02*
X100847000Y-91035000D01*
X100847000Y-91035000D02*
X100847000Y-90285000D01*
X100847000Y-90285000D02*
X100497000Y-90285000D01*
X100497000Y-90285000D02*
X100497000Y-90785000D01*
X100497000Y-90785000D02*
X99497000Y-91035000D01*
X99497000Y-91035000D02*
X99497000Y-88035000D01*
X99497000Y-88035000D02*
X100497000Y-88285000D01*
X100497000Y-88285000D02*
X100497000Y-88785000D01*
X100497000Y-88785000D02*
X100847000Y-88785000D01*
X100847000Y-88785000D02*
X100847000Y-88035000D01*
X100847000Y-88035000D02*
X105147000Y-88035000D01*
X105147000Y-88035000D02*
X105147000Y-88785000D01*
X99397000Y-107815000D02*
X98147000Y-107815000D01*
X98147000Y-107815000D02*
X98147000Y-105815000D01*
%TO.C,R2*%
X128754000Y-97790000D02*
X127984000Y-97790000D01*
X120674000Y-97790000D02*
X121444000Y-97790000D01*
X127984000Y-96420000D02*
X121444000Y-96420000D01*
X127984000Y-99160000D02*
X127984000Y-96420000D01*
X121444000Y-99160000D02*
X127984000Y-99160000D01*
X121444000Y-96420000D02*
X121444000Y-99160000D01*
%TO.C,R1*%
X128627000Y-91567000D02*
X127857000Y-91567000D01*
X120547000Y-91567000D02*
X121317000Y-91567000D01*
X127857000Y-90197000D02*
X121317000Y-90197000D01*
X127857000Y-92937000D02*
X127857000Y-90197000D01*
X121317000Y-92937000D02*
X127857000Y-92937000D01*
X121317000Y-90197000D02*
X121317000Y-92937000D01*
%TO.C,C2*%
X123016000Y-109871000D02*
X117776000Y-109871000D01*
X123016000Y-101631000D02*
X117776000Y-101631000D01*
X117776000Y-101631000D02*
X117776000Y-109871000D01*
X123016000Y-101631000D02*
X123016000Y-109871000D01*
%TO.C,C1*%
X110664000Y-88122000D02*
X115904000Y-88122000D01*
X110664000Y-96362000D02*
X115904000Y-96362000D01*
X115904000Y-96362000D02*
X115904000Y-88122000D01*
X110664000Y-96362000D02*
X110664000Y-88122000D01*
D13*
%TO.C,U1*%
X132334000Y-85344000D02*
X156972000Y-85344000D01*
X156972000Y-85344000D02*
X156972000Y-99568000D01*
X156972000Y-99568000D02*
X132334000Y-99568000D01*
X132334000Y-99568000D02*
X132334000Y-85344000D01*
D14*
X135382000Y-87376000D02*
X132842000Y-87376000D01*
X132842000Y-87376000D02*
X132842000Y-89916000D01*
X132842000Y-89916000D02*
X132842000Y-97536000D01*
X132842000Y-97536000D02*
X137922000Y-97536000D01*
X137922000Y-97536000D02*
X137922000Y-87376000D01*
X137922000Y-87376000D02*
X135382000Y-87376000D01*
D12*
%TO.C,U2*%
X110116000Y-107866000D02*
X110116000Y-97366000D01*
X115057000Y-107866000D02*
X115057000Y-97366000D01*
X110116000Y-107866000D02*
X115057000Y-107866000D01*
X110116000Y-97366000D02*
X115057000Y-97366000D01*
X112876000Y-107866000D02*
X112876000Y-106259000D01*
X112876000Y-104053000D02*
X112876000Y-103718000D01*
X112876000Y-101513000D02*
X112876000Y-101178000D01*
X112876000Y-98973000D02*
X112876000Y-97366000D01*
X110116000Y-104466000D02*
X112134000Y-104466000D01*
X110116000Y-100765000D02*
X112134000Y-100765000D01*
%TO.C,Q2*%
X133611000Y-110914000D02*
X133611000Y-100414000D01*
X138552000Y-110914000D02*
X138552000Y-100414000D01*
X133611000Y-110914000D02*
X138552000Y-110914000D01*
X133611000Y-100414000D02*
X138552000Y-100414000D01*
X136371000Y-110914000D02*
X136371000Y-109307000D01*
X136371000Y-107101000D02*
X136371000Y-106766000D01*
X136371000Y-104561000D02*
X136371000Y-104226000D01*
X136371000Y-102021000D02*
X136371000Y-100414000D01*
X133611000Y-107514000D02*
X135629000Y-107514000D01*
X133611000Y-103813000D02*
X135629000Y-103813000D01*
%TO.C,Q1*%
X126372000Y-110914000D02*
X126372000Y-100414000D01*
X131313000Y-110914000D02*
X131313000Y-100414000D01*
X126372000Y-110914000D02*
X131313000Y-110914000D01*
X126372000Y-100414000D02*
X131313000Y-100414000D01*
X129132000Y-110914000D02*
X129132000Y-109307000D01*
X129132000Y-107101000D02*
X129132000Y-106766000D01*
X129132000Y-104561000D02*
X129132000Y-104226000D01*
X129132000Y-102021000D02*
X129132000Y-100414000D01*
X126372000Y-107514000D02*
X128390000Y-107514000D01*
X126372000Y-103813000D02*
X128390000Y-103813000D01*
%TO.C,J2*%
D10*
X119173666Y-110615380D02*
X119173666Y-111329666D01*
X119126047Y-111472523D01*
X119030809Y-111567761D01*
X118887952Y-111615380D01*
X118792714Y-111615380D01*
X119602238Y-110710619D02*
X119649857Y-110663000D01*
X119745095Y-110615380D01*
X119983190Y-110615380D01*
X120078428Y-110663000D01*
X120126047Y-110710619D01*
X120173666Y-110805857D01*
X120173666Y-110901095D01*
X120126047Y-111043952D01*
X119554619Y-111615380D01*
X120173666Y-111615380D01*
%TO.C,J1*%
X96899380Y-97488333D02*
X97613666Y-97488333D01*
X97756523Y-97535952D01*
X97851761Y-97631190D01*
X97899380Y-97774047D01*
X97899380Y-97869285D01*
X97899380Y-96488333D02*
X97899380Y-97059761D01*
X97899380Y-96774047D02*
X96899380Y-96774047D01*
X97042238Y-96869285D01*
X97137476Y-96964523D01*
X97185095Y-97059761D01*
%TO.C,R2*%
X124547333Y-95872380D02*
X124214000Y-95396190D01*
X123975904Y-95872380D02*
X123975904Y-94872380D01*
X124356857Y-94872380D01*
X124452095Y-94920000D01*
X124499714Y-94967619D01*
X124547333Y-95062857D01*
X124547333Y-95205714D01*
X124499714Y-95300952D01*
X124452095Y-95348571D01*
X124356857Y-95396190D01*
X123975904Y-95396190D01*
X124928285Y-94967619D02*
X124975904Y-94920000D01*
X125071142Y-94872380D01*
X125309238Y-94872380D01*
X125404476Y-94920000D01*
X125452095Y-94967619D01*
X125499714Y-95062857D01*
X125499714Y-95158095D01*
X125452095Y-95300952D01*
X124880666Y-95872380D01*
X125499714Y-95872380D01*
%TO.C,R1*%
X124420333Y-89649380D02*
X124087000Y-89173190D01*
X123848904Y-89649380D02*
X123848904Y-88649380D01*
X124229857Y-88649380D01*
X124325095Y-88697000D01*
X124372714Y-88744619D01*
X124420333Y-88839857D01*
X124420333Y-88982714D01*
X124372714Y-89077952D01*
X124325095Y-89125571D01*
X124229857Y-89173190D01*
X123848904Y-89173190D01*
X125372714Y-89649380D02*
X124801285Y-89649380D01*
X125087000Y-89649380D02*
X125087000Y-88649380D01*
X124991761Y-88792238D01*
X124896523Y-88887476D01*
X124801285Y-88935095D01*
%TO.C,C2*%
X124503142Y-105917666D02*
X124550761Y-105965285D01*
X124598380Y-106108142D01*
X124598380Y-106203380D01*
X124550761Y-106346238D01*
X124455523Y-106441476D01*
X124360285Y-106489095D01*
X124169809Y-106536714D01*
X124026952Y-106536714D01*
X123836476Y-106489095D01*
X123741238Y-106441476D01*
X123646000Y-106346238D01*
X123598380Y-106203380D01*
X123598380Y-106108142D01*
X123646000Y-105965285D01*
X123693619Y-105917666D01*
X123693619Y-105536714D02*
X123646000Y-105489095D01*
X123598380Y-105393857D01*
X123598380Y-105155761D01*
X123646000Y-105060523D01*
X123693619Y-105012904D01*
X123788857Y-104965285D01*
X123884095Y-104965285D01*
X124026952Y-105012904D01*
X124598380Y-105584333D01*
X124598380Y-104965285D01*
%TO.C,C1*%
X109891142Y-92408666D02*
X109938761Y-92456285D01*
X109986380Y-92599142D01*
X109986380Y-92694380D01*
X109938761Y-92837238D01*
X109843523Y-92932476D01*
X109748285Y-92980095D01*
X109557809Y-93027714D01*
X109414952Y-93027714D01*
X109224476Y-92980095D01*
X109129238Y-92932476D01*
X109034000Y-92837238D01*
X108986380Y-92694380D01*
X108986380Y-92599142D01*
X109034000Y-92456285D01*
X109081619Y-92408666D01*
X109986380Y-91456285D02*
X109986380Y-92027714D01*
X109986380Y-91742000D02*
X108986380Y-91742000D01*
X109129238Y-91837238D01*
X109224476Y-91932476D01*
X109272095Y-92027714D01*
%TO.C,U1*%
X138644380Y-91947904D02*
X139453904Y-91947904D01*
X139549142Y-91900285D01*
X139596761Y-91852666D01*
X139644380Y-91757428D01*
X139644380Y-91566952D01*
X139596761Y-91471714D01*
X139549142Y-91424095D01*
X139453904Y-91376476D01*
X138644380Y-91376476D01*
X139644380Y-90376476D02*
X139644380Y-90947904D01*
X139644380Y-90662190D02*
X138644380Y-90662190D01*
X138787238Y-90757428D01*
X138882476Y-90852666D01*
X138930095Y-90947904D01*
%TO.C,U2*%
X108568880Y-103377904D02*
X109378404Y-103377904D01*
X109473642Y-103330285D01*
X109521261Y-103282666D01*
X109568880Y-103187428D01*
X109568880Y-102996952D01*
X109521261Y-102901714D01*
X109473642Y-102854095D01*
X109378404Y-102806476D01*
X108568880Y-102806476D01*
X108664119Y-102377904D02*
X108616500Y-102330285D01*
X108568880Y-102235047D01*
X108568880Y-101996952D01*
X108616500Y-101901714D01*
X108664119Y-101854095D01*
X108759357Y-101806476D01*
X108854595Y-101806476D01*
X108997452Y-101854095D01*
X109568880Y-102425523D01*
X109568880Y-101806476D01*
%TO.C,Q2*%
X139866619Y-101949238D02*
X139819000Y-102044476D01*
X139723761Y-102139714D01*
X139580904Y-102282571D01*
X139533285Y-102377809D01*
X139533285Y-102473047D01*
X139771380Y-102425428D02*
X139723761Y-102520666D01*
X139628523Y-102615904D01*
X139438047Y-102663523D01*
X139104714Y-102663523D01*
X138914238Y-102615904D01*
X138819000Y-102520666D01*
X138771380Y-102425428D01*
X138771380Y-102234952D01*
X138819000Y-102139714D01*
X138914238Y-102044476D01*
X139104714Y-101996857D01*
X139438047Y-101996857D01*
X139628523Y-102044476D01*
X139723761Y-102139714D01*
X139771380Y-102234952D01*
X139771380Y-102425428D01*
X138866619Y-101615904D02*
X138819000Y-101568285D01*
X138771380Y-101473047D01*
X138771380Y-101234952D01*
X138819000Y-101139714D01*
X138866619Y-101092095D01*
X138961857Y-101044476D01*
X139057095Y-101044476D01*
X139199952Y-101092095D01*
X139771380Y-101663523D01*
X139771380Y-101044476D01*
%TO.C,Q1*%
X132627619Y-101314238D02*
X132580000Y-101409476D01*
X132484761Y-101504714D01*
X132341904Y-101647571D01*
X132294285Y-101742809D01*
X132294285Y-101838047D01*
X132532380Y-101790428D02*
X132484761Y-101885666D01*
X132389523Y-101980904D01*
X132199047Y-102028523D01*
X131865714Y-102028523D01*
X131675238Y-101980904D01*
X131580000Y-101885666D01*
X131532380Y-101790428D01*
X131532380Y-101599952D01*
X131580000Y-101504714D01*
X131675238Y-101409476D01*
X131865714Y-101361857D01*
X132199047Y-101361857D01*
X132389523Y-101409476D01*
X132484761Y-101504714D01*
X132532380Y-101599952D01*
X132532380Y-101790428D01*
X132532380Y-100409476D02*
X132532380Y-100980904D01*
X132532380Y-100695190D02*
X131532380Y-100695190D01*
X131675238Y-100790428D01*
X131770476Y-100885666D01*
X131818095Y-100980904D01*
%TD*%
%LPC*%
D15*
%TO.C,J3*%
X103124000Y-111633000D03*
G36*
G01*
X104674000Y-117613000D02*
X101574000Y-117613000D01*
G75*
G02*
X101324000Y-117363000I0J250000D01*
G01*
X101324000Y-116063000D01*
G75*
G02*
X101574000Y-115813000I250000J0D01*
G01*
X104674000Y-115813000D01*
G75*
G02*
X104924000Y-116063000I0J-250000D01*
G01*
X104924000Y-117363000D01*
G75*
G02*
X104674000Y-117613000I-250000J0D01*
G01*
G37*
%TD*%
D16*
%TO.C,J2*%
X127127000Y-116713000D03*
X122047000Y-116713000D03*
X116967000Y-116713000D03*
G36*
G01*
X110987000Y-118263000D02*
X110987000Y-115163000D01*
G75*
G02*
X111237000Y-114913000I250000J0D01*
G01*
X112537000Y-114913000D01*
G75*
G02*
X112787000Y-115163000I0J-250000D01*
G01*
X112787000Y-118263000D01*
G75*
G02*
X112537000Y-118513000I-250000J0D01*
G01*
X111237000Y-118513000D01*
G75*
G02*
X110987000Y-118263000I0J250000D01*
G01*
G37*
%TD*%
D15*
%TO.C,J1*%
X102997000Y-89535000D03*
X102997000Y-94615000D03*
X102997000Y-99695000D03*
G36*
G01*
X104547000Y-105675000D02*
X101447000Y-105675000D01*
G75*
G02*
X101197000Y-105425000I0J250000D01*
G01*
X101197000Y-104125000D01*
G75*
G02*
X101447000Y-103875000I250000J0D01*
G01*
X104547000Y-103875000D01*
G75*
G02*
X104797000Y-104125000I0J-250000D01*
G01*
X104797000Y-105425000D01*
G75*
G02*
X104547000Y-105675000I-250000J0D01*
G01*
G37*
%TD*%
D17*
%TO.C,R2*%
X129794000Y-97790000D03*
D18*
X119634000Y-97790000D03*
%TD*%
D17*
%TO.C,R1*%
X129667000Y-91567000D03*
D18*
X119507000Y-91567000D03*
%TD*%
D19*
%TO.C,C2*%
X120396000Y-108251000D03*
X120396000Y-103251000D03*
%TD*%
%TO.C,C1*%
X113284000Y-89742000D03*
X113284000Y-94742000D03*
%TD*%
D20*
%TO.C,U1*%
X134112000Y-88646000D03*
D21*
X136652000Y-88646000D03*
X134112000Y-91186000D03*
X136652000Y-91186000D03*
X134112000Y-93726000D03*
X136652000Y-93726000D03*
X134112000Y-96266000D03*
X136652000Y-96266000D03*
%TD*%
D22*
%TO.C,U2*%
X113284000Y-100076000D03*
X113284000Y-102616000D03*
D23*
X113284000Y-105156000D03*
%TD*%
D22*
%TO.C,Q2*%
X136779000Y-103124000D03*
X136779000Y-105664000D03*
D23*
X136779000Y-108204000D03*
%TD*%
D22*
%TO.C,Q1*%
X129540000Y-103124000D03*
X129540000Y-105664000D03*
D23*
X129540000Y-108204000D03*
%TD*%
M02*
