%TF.GenerationSoftware,KiCad,Pcbnew,5.99.0+really5.1.10+dfsg1-1*%
%TF.CreationDate,2021-12-19T10:59:00-08:00*%
%TF.ProjectId,TasmotaGenericPCB,5461736d-6f74-4614-9765-6e6572696350,rev?*%
%TF.SameCoordinates,Original*%
%TF.FileFunction,Soldermask,Top*%
%TF.FilePolarity,Negative*%
%FSLAX46Y46*%
G04 Gerber Fmt 4.6, Leading zero omitted, Abs format (unit mm)*
G04 Created by KiCad (PCBNEW 5.99.0+really5.1.10+dfsg1-1) date 2021-12-19 10:59:00*
%MOMM*%
%LPD*%
G01*
G04 APERTURE LIST*
%ADD10O,3.600000X1.800000*%
%ADD11O,1.800000X3.600000*%
%ADD12O,1.600000X1.600000*%
%ADD13C,1.600000*%
%ADD14C,2.000000*%
%ADD15R,1.727200X1.727200*%
%ADD16O,1.727200X1.727200*%
%ADD17O,2.000000X1.905000*%
%ADD18R,2.000000X1.905000*%
G04 APERTURE END LIST*
D10*
%TO.C,J3*%
X103124000Y-111633000D03*
G36*
G01*
X104674000Y-117613000D02*
X101574000Y-117613000D01*
G75*
G02*
X101324000Y-117363000I0J250000D01*
G01*
X101324000Y-116063000D01*
G75*
G02*
X101574000Y-115813000I250000J0D01*
G01*
X104674000Y-115813000D01*
G75*
G02*
X104924000Y-116063000I0J-250000D01*
G01*
X104924000Y-117363000D01*
G75*
G02*
X104674000Y-117613000I-250000J0D01*
G01*
G37*
%TD*%
D11*
%TO.C,J2*%
X127127000Y-116713000D03*
X122047000Y-116713000D03*
X116967000Y-116713000D03*
G36*
G01*
X110987000Y-118263000D02*
X110987000Y-115163000D01*
G75*
G02*
X111237000Y-114913000I250000J0D01*
G01*
X112537000Y-114913000D01*
G75*
G02*
X112787000Y-115163000I0J-250000D01*
G01*
X112787000Y-118263000D01*
G75*
G02*
X112537000Y-118513000I-250000J0D01*
G01*
X111237000Y-118513000D01*
G75*
G02*
X110987000Y-118263000I0J250000D01*
G01*
G37*
%TD*%
D10*
%TO.C,J1*%
X102997000Y-89535000D03*
X102997000Y-94615000D03*
X102997000Y-99695000D03*
G36*
G01*
X104547000Y-105675000D02*
X101447000Y-105675000D01*
G75*
G02*
X101197000Y-105425000I0J250000D01*
G01*
X101197000Y-104125000D01*
G75*
G02*
X101447000Y-103875000I250000J0D01*
G01*
X104547000Y-103875000D01*
G75*
G02*
X104797000Y-104125000I0J-250000D01*
G01*
X104797000Y-105425000D01*
G75*
G02*
X104547000Y-105675000I-250000J0D01*
G01*
G37*
%TD*%
D12*
%TO.C,R2*%
X129794000Y-97790000D03*
D13*
X119634000Y-97790000D03*
%TD*%
D12*
%TO.C,R1*%
X129667000Y-91567000D03*
D13*
X119507000Y-91567000D03*
%TD*%
D14*
%TO.C,C2*%
X120396000Y-108251000D03*
X120396000Y-103251000D03*
%TD*%
%TO.C,C1*%
X113284000Y-89742000D03*
X113284000Y-94742000D03*
%TD*%
D15*
%TO.C,U1*%
X134112000Y-88646000D03*
D16*
X136652000Y-88646000D03*
X134112000Y-91186000D03*
X136652000Y-91186000D03*
X134112000Y-93726000D03*
X136652000Y-93726000D03*
X134112000Y-96266000D03*
X136652000Y-96266000D03*
%TD*%
D17*
%TO.C,U2*%
X113284000Y-100076000D03*
X113284000Y-102616000D03*
D18*
X113284000Y-105156000D03*
%TD*%
D17*
%TO.C,Q2*%
X136779000Y-103124000D03*
X136779000Y-105664000D03*
D18*
X136779000Y-108204000D03*
%TD*%
D17*
%TO.C,Q1*%
X129540000Y-103124000D03*
X129540000Y-105664000D03*
D18*
X129540000Y-108204000D03*
%TD*%
M02*
