M48
; DRILL file {KiCad 5.99.0+really5.1.10+dfsg1-1} date Sun Dec 19 10:59:44 2021
; FORMAT={-:-/ absolute / metric / decimal}
; #@! TF.CreationDate,2021-12-19T10:59:44-08:00
; #@! TF.GenerationSoftware,Kicad,Pcbnew,5.99.0+really5.1.10+dfsg1-1
; #@! TF.FileFunction,Plated,1,2,PTH
FMAT,2
METRIC
T1C0.800
T2C1.000
T3C1.016
T4C1.200
%
G90
G05
T1
X119.507Y-91.567
X119.634Y-97.79
X129.667Y-91.567
X129.794Y-97.79
T2
X113.284Y-89.742
X113.284Y-94.742
X120.396Y-103.251
X120.396Y-108.251
T3
X134.112Y-88.646
X134.112Y-91.186
X134.112Y-93.726
X134.112Y-96.266
X136.652Y-88.646
X136.652Y-91.186
X136.652Y-93.726
X136.652Y-96.266
T4
X102.997Y-89.535
X102.997Y-94.615
X102.997Y-99.695
X102.997Y-104.775
X103.124Y-111.633
X103.124Y-116.713
X111.887Y-116.713
X113.284Y-100.076
X113.284Y-102.616
X113.284Y-105.156
X116.967Y-116.713
X122.047Y-116.713
X127.127Y-116.713
X129.54Y-103.124
X129.54Y-105.664
X129.54Y-108.204
X136.779Y-103.124
X136.779Y-105.664
X136.779Y-108.204
T0
M30
