%TF.GenerationSoftware,KiCad,Pcbnew,5.99.0+really5.1.10+dfsg1-1*%
%TF.CreationDate,2021-12-19T10:59:00-08:00*%
%TF.ProjectId,TasmotaGenericPCB,5461736d-6f74-4614-9765-6e6572696350,rev?*%
%TF.SameCoordinates,Original*%
%TF.FileFunction,Legend,Bot*%
%TF.FilePolarity,Positive*%
%FSLAX46Y46*%
G04 Gerber Fmt 4.6, Leading zero omitted, Abs format (unit mm)*
G04 Created by KiCad (PCBNEW 5.99.0+really5.1.10+dfsg1-1) date 2021-12-19 10:59:00*
%MOMM*%
%LPD*%
G01*
G04 APERTURE LIST*
%ADD10C,0.010000*%
%ADD11O,3.600000X1.800000*%
%ADD12O,1.800000X3.600000*%
%ADD13O,1.600000X1.600000*%
%ADD14C,1.600000*%
%ADD15C,2.000000*%
%ADD16R,1.727200X1.727200*%
%ADD17O,1.727200X1.727200*%
%ADD18O,2.000000X1.905000*%
%ADD19R,2.000000X1.905000*%
G04 APERTURE END LIST*
D10*
%TO.C,G\u002A\u002A\u002A*%
G36*
X113525805Y-91561591D02*
G01*
X113833734Y-91979555D01*
X114280054Y-92271010D01*
X114810034Y-92400468D01*
X115368941Y-92332440D01*
X115379507Y-92328997D01*
X115874668Y-92060142D01*
X116196299Y-91670279D01*
X116329242Y-91213300D01*
X116258341Y-90743101D01*
X115968437Y-90313575D01*
X115951000Y-90296999D01*
X115570000Y-89941092D01*
X115573144Y-85280500D01*
X116014290Y-84994750D01*
X116344028Y-84824939D01*
X116724944Y-84736696D01*
X117252086Y-84709208D01*
X117319243Y-84709000D01*
X118183048Y-84709000D01*
X118808500Y-85344000D01*
X119126341Y-85691862D01*
X119268901Y-85908718D01*
X119232770Y-85979000D01*
X119041722Y-86045337D01*
X118700891Y-86222790D01*
X118270103Y-86479018D01*
X118062794Y-86611435D01*
X117801854Y-86781778D01*
X117801854Y-93253808D01*
X118102693Y-93300511D01*
X118175149Y-93346368D01*
X118347104Y-93621775D01*
X118304550Y-93915859D01*
X118105202Y-94109567D01*
X117757784Y-94192952D01*
X117463990Y-94096628D01*
X117288634Y-93867036D01*
X117296531Y-93550617D01*
X117302494Y-93534403D01*
X117493733Y-93340691D01*
X117801854Y-93253808D01*
X117801854Y-86781778D01*
X117094000Y-87243871D01*
X117094000Y-92563461D01*
X116713000Y-92944461D01*
X116404909Y-93393309D01*
X116345860Y-93861910D01*
X116537565Y-94329475D01*
X116592809Y-94404311D01*
X116995343Y-94734540D01*
X117504745Y-94899127D01*
X118054214Y-94905422D01*
X118576948Y-94760774D01*
X119006146Y-94472533D01*
X119250989Y-94111853D01*
X119322670Y-93665985D01*
X119212516Y-93226321D01*
X118950465Y-92889850D01*
X118854581Y-92827678D01*
X118772717Y-92766675D01*
X118712178Y-92660616D01*
X118669783Y-92474663D01*
X118642350Y-92173980D01*
X118626697Y-91723728D01*
X118619641Y-91089071D01*
X118618000Y-90237679D01*
X118618000Y-87774295D01*
X118999000Y-87502999D01*
X119380000Y-87231704D01*
X119380000Y-89858458D01*
X120367059Y-90839729D01*
X120830577Y-91288534D01*
X121168224Y-91579637D01*
X121424145Y-91744042D01*
X121642483Y-91812758D01*
X121764059Y-91821000D01*
X122053578Y-91853334D01*
X122164019Y-91980947D01*
X122174000Y-92089584D01*
X122265318Y-92309009D01*
X122522622Y-92663356D01*
X122920929Y-93120072D01*
X123148523Y-93359584D01*
X124123047Y-94361000D01*
X126901950Y-94361000D01*
X127839975Y-93776354D01*
X128778000Y-93191709D01*
X128778000Y-87744816D01*
X129095635Y-87465158D01*
X129349586Y-87135767D01*
X129491981Y-86775395D01*
X129513469Y-86494962D01*
X129422842Y-86259398D01*
X129179835Y-85975014D01*
X129123545Y-85918145D01*
X128802498Y-85635859D01*
X128507939Y-85504660D01*
X128115783Y-85471078D01*
X128085893Y-85471000D01*
X128059422Y-85474458D01*
X128059422Y-86232719D01*
X128350746Y-86264980D01*
X128439333Y-86317666D01*
X128522769Y-86554158D01*
X128455662Y-86840844D01*
X128340490Y-86989198D01*
X128060229Y-87108256D01*
X127769799Y-87072447D01*
X127533410Y-86924133D01*
X127415270Y-86705675D01*
X127479589Y-86459434D01*
X127499165Y-86434145D01*
X127732646Y-86294425D01*
X128059422Y-86232719D01*
X128059422Y-85474458D01*
X127454700Y-85553458D01*
X126961955Y-85777236D01*
X126629467Y-86106942D01*
X126479043Y-86507181D01*
X126532491Y-86942560D01*
X126811619Y-87377686D01*
X126873000Y-87439500D01*
X127254000Y-87804521D01*
X127252427Y-90225510D01*
X127250855Y-92646500D01*
X126809709Y-92932250D01*
X126406266Y-93126320D01*
X125920496Y-93209580D01*
X125631756Y-93218000D01*
X125227096Y-93207681D01*
X124948707Y-93148992D01*
X124705173Y-93000334D01*
X124405076Y-92720110D01*
X124296475Y-92610387D01*
X123933238Y-92226810D01*
X123745703Y-91984807D01*
X123718806Y-91858250D01*
X123837481Y-91821013D01*
X123841323Y-91821000D01*
X124010439Y-91757587D01*
X124331188Y-91589323D01*
X124741840Y-91349170D01*
X124852141Y-91281250D01*
X125719634Y-90741500D01*
X125724817Y-88003010D01*
X125730000Y-85264521D01*
X126111000Y-84899500D01*
X126392404Y-84547208D01*
X126489766Y-84161531D01*
X126492000Y-84074000D01*
X126378097Y-83599010D01*
X126074540Y-83213132D01*
X125638552Y-82945752D01*
X125140796Y-82829398D01*
X125140796Y-83692874D01*
X125430517Y-83725836D01*
X125518333Y-83777666D01*
X125603882Y-84009293D01*
X125534883Y-84262609D01*
X125402112Y-84377912D01*
X125038767Y-84445478D01*
X124732296Y-84384340D01*
X124538512Y-84228353D01*
X124513230Y-84011372D01*
X124587000Y-83883500D01*
X124816093Y-83750375D01*
X125140796Y-83692874D01*
X125140796Y-82829398D01*
X125127356Y-82826256D01*
X124598177Y-82884032D01*
X124361378Y-82979824D01*
X123873292Y-83335539D01*
X123615769Y-83759496D01*
X123594494Y-84220016D01*
X123815150Y-84685423D01*
X124015500Y-84907725D01*
X124460000Y-85326943D01*
X124460000Y-89988235D01*
X124079000Y-90213297D01*
X123698000Y-90438360D01*
X123698000Y-87941143D01*
X122776030Y-87025326D01*
X122334417Y-86597915D01*
X122008035Y-86320271D01*
X121740150Y-86155226D01*
X121474026Y-86065616D01*
X121252030Y-86026992D01*
X120909780Y-85966656D01*
X120909780Y-87248525D01*
X121158292Y-87364192D01*
X121529278Y-87686258D01*
X121629442Y-87783442D01*
X122174000Y-88317884D01*
X122174000Y-89434442D01*
X122165189Y-89992363D01*
X122134432Y-90337282D01*
X122075241Y-90509729D01*
X121995268Y-90551000D01*
X121825040Y-90462076D01*
X121551293Y-90229071D01*
X121236633Y-89906006D01*
X120656728Y-89261012D01*
X120663302Y-88255006D01*
X120685865Y-87682423D01*
X120760164Y-87350766D01*
X120909780Y-87248525D01*
X120909780Y-85966656D01*
X120886794Y-85962603D01*
X120709080Y-85870830D01*
X120653070Y-85706010D01*
X120650000Y-85609309D01*
X120591632Y-85382390D01*
X120399870Y-85087381D01*
X120049725Y-84690534D01*
X119729250Y-84365821D01*
X118808500Y-83457500D01*
X117535328Y-83370416D01*
X116262156Y-83283331D01*
X115281722Y-83900915D01*
X114739406Y-84242525D01*
X114739406Y-90777857D01*
X115086518Y-90794653D01*
X115157250Y-90817427D01*
X115400012Y-90998768D01*
X115408373Y-91242768D01*
X115244912Y-91446297D01*
X114979680Y-91538287D01*
X114677134Y-91485382D01*
X114439108Y-91323663D01*
X114363500Y-91133989D01*
X114471117Y-90901850D01*
X114739406Y-90777857D01*
X114739406Y-84242525D01*
X114301288Y-84518500D01*
X114300644Y-87204550D01*
X114299999Y-89890600D01*
X113855499Y-90335100D01*
X113593295Y-90650215D01*
X113433656Y-90944085D01*
X113410999Y-91052606D01*
X113525805Y-91561591D01*
G37*
X113525805Y-91561591D02*
X113833734Y-91979555D01*
X114280054Y-92271010D01*
X114810034Y-92400468D01*
X115368941Y-92332440D01*
X115379507Y-92328997D01*
X115874668Y-92060142D01*
X116196299Y-91670279D01*
X116329242Y-91213300D01*
X116258341Y-90743101D01*
X115968437Y-90313575D01*
X115951000Y-90296999D01*
X115570000Y-89941092D01*
X115573144Y-85280500D01*
X116014290Y-84994750D01*
X116344028Y-84824939D01*
X116724944Y-84736696D01*
X117252086Y-84709208D01*
X117319243Y-84709000D01*
X118183048Y-84709000D01*
X118808500Y-85344000D01*
X119126341Y-85691862D01*
X119268901Y-85908718D01*
X119232770Y-85979000D01*
X119041722Y-86045337D01*
X118700891Y-86222790D01*
X118270103Y-86479018D01*
X118062794Y-86611435D01*
X117801854Y-86781778D01*
X117801854Y-93253808D01*
X118102693Y-93300511D01*
X118175149Y-93346368D01*
X118347104Y-93621775D01*
X118304550Y-93915859D01*
X118105202Y-94109567D01*
X117757784Y-94192952D01*
X117463990Y-94096628D01*
X117288634Y-93867036D01*
X117296531Y-93550617D01*
X117302494Y-93534403D01*
X117493733Y-93340691D01*
X117801854Y-93253808D01*
X117801854Y-86781778D01*
X117094000Y-87243871D01*
X117094000Y-92563461D01*
X116713000Y-92944461D01*
X116404909Y-93393309D01*
X116345860Y-93861910D01*
X116537565Y-94329475D01*
X116592809Y-94404311D01*
X116995343Y-94734540D01*
X117504745Y-94899127D01*
X118054214Y-94905422D01*
X118576948Y-94760774D01*
X119006146Y-94472533D01*
X119250989Y-94111853D01*
X119322670Y-93665985D01*
X119212516Y-93226321D01*
X118950465Y-92889850D01*
X118854581Y-92827678D01*
X118772717Y-92766675D01*
X118712178Y-92660616D01*
X118669783Y-92474663D01*
X118642350Y-92173980D01*
X118626697Y-91723728D01*
X118619641Y-91089071D01*
X118618000Y-90237679D01*
X118618000Y-87774295D01*
X118999000Y-87502999D01*
X119380000Y-87231704D01*
X119380000Y-89858458D01*
X120367059Y-90839729D01*
X120830577Y-91288534D01*
X121168224Y-91579637D01*
X121424145Y-91744042D01*
X121642483Y-91812758D01*
X121764059Y-91821000D01*
X122053578Y-91853334D01*
X122164019Y-91980947D01*
X122174000Y-92089584D01*
X122265318Y-92309009D01*
X122522622Y-92663356D01*
X122920929Y-93120072D01*
X123148523Y-93359584D01*
X124123047Y-94361000D01*
X126901950Y-94361000D01*
X127839975Y-93776354D01*
X128778000Y-93191709D01*
X128778000Y-87744816D01*
X129095635Y-87465158D01*
X129349586Y-87135767D01*
X129491981Y-86775395D01*
X129513469Y-86494962D01*
X129422842Y-86259398D01*
X129179835Y-85975014D01*
X129123545Y-85918145D01*
X128802498Y-85635859D01*
X128507939Y-85504660D01*
X128115783Y-85471078D01*
X128085893Y-85471000D01*
X128059422Y-85474458D01*
X128059422Y-86232719D01*
X128350746Y-86264980D01*
X128439333Y-86317666D01*
X128522769Y-86554158D01*
X128455662Y-86840844D01*
X128340490Y-86989198D01*
X128060229Y-87108256D01*
X127769799Y-87072447D01*
X127533410Y-86924133D01*
X127415270Y-86705675D01*
X127479589Y-86459434D01*
X127499165Y-86434145D01*
X127732646Y-86294425D01*
X128059422Y-86232719D01*
X128059422Y-85474458D01*
X127454700Y-85553458D01*
X126961955Y-85777236D01*
X126629467Y-86106942D01*
X126479043Y-86507181D01*
X126532491Y-86942560D01*
X126811619Y-87377686D01*
X126873000Y-87439500D01*
X127254000Y-87804521D01*
X127252427Y-90225510D01*
X127250855Y-92646500D01*
X126809709Y-92932250D01*
X126406266Y-93126320D01*
X125920496Y-93209580D01*
X125631756Y-93218000D01*
X125227096Y-93207681D01*
X124948707Y-93148992D01*
X124705173Y-93000334D01*
X124405076Y-92720110D01*
X124296475Y-92610387D01*
X123933238Y-92226810D01*
X123745703Y-91984807D01*
X123718806Y-91858250D01*
X123837481Y-91821013D01*
X123841323Y-91821000D01*
X124010439Y-91757587D01*
X124331188Y-91589323D01*
X124741840Y-91349170D01*
X124852141Y-91281250D01*
X125719634Y-90741500D01*
X125724817Y-88003010D01*
X125730000Y-85264521D01*
X126111000Y-84899500D01*
X126392404Y-84547208D01*
X126489766Y-84161531D01*
X126492000Y-84074000D01*
X126378097Y-83599010D01*
X126074540Y-83213132D01*
X125638552Y-82945752D01*
X125140796Y-82829398D01*
X125140796Y-83692874D01*
X125430517Y-83725836D01*
X125518333Y-83777666D01*
X125603882Y-84009293D01*
X125534883Y-84262609D01*
X125402112Y-84377912D01*
X125038767Y-84445478D01*
X124732296Y-84384340D01*
X124538512Y-84228353D01*
X124513230Y-84011372D01*
X124587000Y-83883500D01*
X124816093Y-83750375D01*
X125140796Y-83692874D01*
X125140796Y-82829398D01*
X125127356Y-82826256D01*
X124598177Y-82884032D01*
X124361378Y-82979824D01*
X123873292Y-83335539D01*
X123615769Y-83759496D01*
X123594494Y-84220016D01*
X123815150Y-84685423D01*
X124015500Y-84907725D01*
X124460000Y-85326943D01*
X124460000Y-89988235D01*
X124079000Y-90213297D01*
X123698000Y-90438360D01*
X123698000Y-87941143D01*
X122776030Y-87025326D01*
X122334417Y-86597915D01*
X122008035Y-86320271D01*
X121740150Y-86155226D01*
X121474026Y-86065616D01*
X121252030Y-86026992D01*
X120909780Y-85966656D01*
X120909780Y-87248525D01*
X121158292Y-87364192D01*
X121529278Y-87686258D01*
X121629442Y-87783442D01*
X122174000Y-88317884D01*
X122174000Y-89434442D01*
X122165189Y-89992363D01*
X122134432Y-90337282D01*
X122075241Y-90509729D01*
X121995268Y-90551000D01*
X121825040Y-90462076D01*
X121551293Y-90229071D01*
X121236633Y-89906006D01*
X120656728Y-89261012D01*
X120663302Y-88255006D01*
X120685865Y-87682423D01*
X120760164Y-87350766D01*
X120909780Y-87248525D01*
X120909780Y-85966656D01*
X120886794Y-85962603D01*
X120709080Y-85870830D01*
X120653070Y-85706010D01*
X120650000Y-85609309D01*
X120591632Y-85382390D01*
X120399870Y-85087381D01*
X120049725Y-84690534D01*
X119729250Y-84365821D01*
X118808500Y-83457500D01*
X117535328Y-83370416D01*
X116262156Y-83283331D01*
X115281722Y-83900915D01*
X114739406Y-84242525D01*
X114739406Y-90777857D01*
X115086518Y-90794653D01*
X115157250Y-90817427D01*
X115400012Y-90998768D01*
X115408373Y-91242768D01*
X115244912Y-91446297D01*
X114979680Y-91538287D01*
X114677134Y-91485382D01*
X114439108Y-91323663D01*
X114363500Y-91133989D01*
X114471117Y-90901850D01*
X114739406Y-90777857D01*
X114739406Y-84242525D01*
X114301288Y-84518500D01*
X114300644Y-87204550D01*
X114299999Y-89890600D01*
X113855499Y-90335100D01*
X113593295Y-90650215D01*
X113433656Y-90944085D01*
X113410999Y-91052606D01*
X113525805Y-91561591D01*
G36*
X123684967Y-96517092D02*
G01*
X124041597Y-96783963D01*
X124540866Y-96899623D01*
X124606842Y-96901000D01*
X125105000Y-96799865D01*
X125474757Y-96532852D01*
X125687315Y-96154543D01*
X125713877Y-95719522D01*
X125525644Y-95282371D01*
X125487220Y-95232319D01*
X125263250Y-95033634D01*
X124956548Y-94946323D01*
X124650724Y-94932500D01*
X124570649Y-94938179D01*
X124570649Y-95250000D01*
X125044186Y-95333733D01*
X125346961Y-95560753D01*
X125451575Y-95894790D01*
X125344531Y-96274349D01*
X125172892Y-96444874D01*
X124856024Y-96514524D01*
X124671431Y-96520000D01*
X124198963Y-96466818D01*
X123928450Y-96291141D01*
X123827637Y-95968771D01*
X123825000Y-95885000D01*
X123906395Y-95512773D01*
X124164496Y-95307209D01*
X124570649Y-95250000D01*
X124570649Y-94938179D01*
X124241637Y-94961515D01*
X123967150Y-95079893D01*
X123738772Y-95302470D01*
X123506769Y-95727020D01*
X123497762Y-96148336D01*
X123684967Y-96517092D01*
G37*
X123684967Y-96517092D02*
X124041597Y-96783963D01*
X124540866Y-96899623D01*
X124606842Y-96901000D01*
X125105000Y-96799865D01*
X125474757Y-96532852D01*
X125687315Y-96154543D01*
X125713877Y-95719522D01*
X125525644Y-95282371D01*
X125487220Y-95232319D01*
X125263250Y-95033634D01*
X124956548Y-94946323D01*
X124650724Y-94932500D01*
X124570649Y-94938179D01*
X124570649Y-95250000D01*
X125044186Y-95333733D01*
X125346961Y-95560753D01*
X125451575Y-95894790D01*
X125344531Y-96274349D01*
X125172892Y-96444874D01*
X124856024Y-96514524D01*
X124671431Y-96520000D01*
X124198963Y-96466818D01*
X123928450Y-96291141D01*
X123827637Y-95968771D01*
X123825000Y-95885000D01*
X123906395Y-95512773D01*
X124164496Y-95307209D01*
X124570649Y-95250000D01*
X124570649Y-94938179D01*
X124241637Y-94961515D01*
X123967150Y-95079893D01*
X123738772Y-95302470D01*
X123506769Y-95727020D01*
X123497762Y-96148336D01*
X123684967Y-96517092D01*
G36*
X123620895Y-97572983D02*
G01*
X123801203Y-97631966D01*
X124157857Y-97658635D01*
X124523500Y-97663000D01*
X125476000Y-97663000D01*
X125476000Y-98171000D01*
X125504167Y-98489110D01*
X125574531Y-98666046D01*
X125603000Y-98679000D01*
X125671013Y-98567522D01*
X125714191Y-98293287D01*
X125729621Y-97946589D01*
X125714391Y-97617720D01*
X125665586Y-97396977D01*
X125645333Y-97366666D01*
X125486292Y-97326633D01*
X125141115Y-97296815D01*
X124677620Y-97282529D01*
X124565833Y-97282000D01*
X124050770Y-97291287D01*
X123743842Y-97324942D01*
X123599666Y-97391656D01*
X123571000Y-97472500D01*
X123620895Y-97572983D01*
G37*
X123620895Y-97572983D02*
X123801203Y-97631966D01*
X124157857Y-97658635D01*
X124523500Y-97663000D01*
X125476000Y-97663000D01*
X125476000Y-98171000D01*
X125504167Y-98489110D01*
X125574531Y-98666046D01*
X125603000Y-98679000D01*
X125671013Y-98567522D01*
X125714191Y-98293287D01*
X125729621Y-97946589D01*
X125714391Y-97617720D01*
X125665586Y-97396977D01*
X125645333Y-97366666D01*
X125486292Y-97326633D01*
X125141115Y-97296815D01*
X124677620Y-97282529D01*
X124565833Y-97282000D01*
X124050770Y-97291287D01*
X123743842Y-97324942D01*
X123599666Y-97391656D01*
X123571000Y-97472500D01*
X123620895Y-97572983D01*
G36*
X123688220Y-100522518D02*
G01*
X124001321Y-100567664D01*
X124440316Y-100584000D01*
X124951721Y-100567438D01*
X125276144Y-100508370D01*
X125479004Y-100392721D01*
X125519816Y-100351749D01*
X125701665Y-99996854D01*
X125714969Y-99593106D01*
X125565780Y-99243045D01*
X125447741Y-99130701D01*
X125171817Y-99015972D01*
X124784376Y-98946499D01*
X124357998Y-98922560D01*
X123965267Y-98944433D01*
X123678763Y-99012397D01*
X123571000Y-99123500D01*
X123623380Y-99227123D01*
X123811684Y-99286368D01*
X124182656Y-99311279D01*
X124457580Y-99314000D01*
X124923474Y-99319477D01*
X125196396Y-99350032D01*
X125337345Y-99426846D01*
X125407320Y-99571100D01*
X125428807Y-99651260D01*
X125426659Y-99972689D01*
X125221886Y-100187293D01*
X124801246Y-100303096D01*
X124308726Y-100330000D01*
X123912819Y-100349844D01*
X123645459Y-100401371D01*
X123571000Y-100457000D01*
X123688220Y-100522518D01*
G37*
X123688220Y-100522518D02*
X124001321Y-100567664D01*
X124440316Y-100584000D01*
X124951721Y-100567438D01*
X125276144Y-100508370D01*
X125479004Y-100392721D01*
X125519816Y-100351749D01*
X125701665Y-99996854D01*
X125714969Y-99593106D01*
X125565780Y-99243045D01*
X125447741Y-99130701D01*
X125171817Y-99015972D01*
X124784376Y-98946499D01*
X124357998Y-98922560D01*
X123965267Y-98944433D01*
X123678763Y-99012397D01*
X123571000Y-99123500D01*
X123623380Y-99227123D01*
X123811684Y-99286368D01*
X124182656Y-99311279D01*
X124457580Y-99314000D01*
X124923474Y-99319477D01*
X125196396Y-99350032D01*
X125337345Y-99426846D01*
X125407320Y-99571100D01*
X125428807Y-99651260D01*
X125426659Y-99972689D01*
X125221886Y-100187293D01*
X124801246Y-100303096D01*
X124308726Y-100330000D01*
X123912819Y-100349844D01*
X123645459Y-100401371D01*
X123571000Y-100457000D01*
X123688220Y-100522518D01*
G36*
X123586309Y-102311033D02*
G01*
X123630288Y-102611194D01*
X123698000Y-102679500D01*
X123796974Y-102504111D01*
X123825000Y-102296568D01*
X123841005Y-102138160D01*
X123925360Y-102043625D01*
X124132576Y-101992506D01*
X124517160Y-101964344D01*
X124735591Y-101954813D01*
X125283268Y-101910091D01*
X125610595Y-101831887D01*
X125698674Y-101758750D01*
X125655331Y-101673244D01*
X125434641Y-101622689D01*
X125004610Y-101601508D01*
X124788083Y-101600000D01*
X123825000Y-101600000D01*
X123825000Y-101219000D01*
X123788213Y-100951487D01*
X123699580Y-100838029D01*
X123698000Y-100838000D01*
X123634140Y-100956267D01*
X123589586Y-101276754D01*
X123571146Y-101747989D01*
X123571000Y-101797995D01*
X123586309Y-102311033D01*
G37*
X123586309Y-102311033D02*
X123630288Y-102611194D01*
X123698000Y-102679500D01*
X123796974Y-102504111D01*
X123825000Y-102296568D01*
X123841005Y-102138160D01*
X123925360Y-102043625D01*
X124132576Y-101992506D01*
X124517160Y-101964344D01*
X124735591Y-101954813D01*
X125283268Y-101910091D01*
X125610595Y-101831887D01*
X125698674Y-101758750D01*
X125655331Y-101673244D01*
X125434641Y-101622689D01*
X125004610Y-101601508D01*
X124788083Y-101600000D01*
X123825000Y-101600000D01*
X123825000Y-101219000D01*
X123788213Y-100951487D01*
X123699580Y-100838029D01*
X123698000Y-100838000D01*
X123634140Y-100956267D01*
X123589586Y-101276754D01*
X123571146Y-101747989D01*
X123571000Y-101797995D01*
X123586309Y-102311033D01*
G36*
X123588224Y-103633473D02*
G01*
X123650839Y-103708900D01*
X123723399Y-103657400D01*
X123912250Y-103579914D01*
X124245718Y-103529580D01*
X124646238Y-103507521D01*
X125036244Y-103514862D01*
X125338170Y-103552726D01*
X125474451Y-103622238D01*
X125476000Y-103632000D01*
X125572643Y-103755309D01*
X125603000Y-103759000D01*
X125686943Y-103647356D01*
X125728903Y-103372834D01*
X125730000Y-103314500D01*
X125698101Y-103020698D01*
X125619667Y-102873839D01*
X125603000Y-102870000D01*
X125479690Y-102966643D01*
X125476000Y-102997000D01*
X125359363Y-103063365D01*
X125050390Y-103108802D01*
X124650500Y-103124000D01*
X124219126Y-103106055D01*
X123923785Y-103058521D01*
X123825000Y-102997000D01*
X123728356Y-102873690D01*
X123698000Y-102870000D01*
X123615908Y-102982079D01*
X123572871Y-103259545D01*
X123571000Y-103339900D01*
X123588224Y-103633473D01*
G37*
X123588224Y-103633473D02*
X123650839Y-103708900D01*
X123723399Y-103657400D01*
X123912250Y-103579914D01*
X124245718Y-103529580D01*
X124646238Y-103507521D01*
X125036244Y-103514862D01*
X125338170Y-103552726D01*
X125474451Y-103622238D01*
X125476000Y-103632000D01*
X125572643Y-103755309D01*
X125603000Y-103759000D01*
X125686943Y-103647356D01*
X125728903Y-103372834D01*
X125730000Y-103314500D01*
X125698101Y-103020698D01*
X125619667Y-102873839D01*
X125603000Y-102870000D01*
X125479690Y-102966643D01*
X125476000Y-102997000D01*
X125359363Y-103063365D01*
X125050390Y-103108802D01*
X124650500Y-103124000D01*
X124219126Y-103106055D01*
X123923785Y-103058521D01*
X123825000Y-102997000D01*
X123728356Y-102873690D01*
X123698000Y-102870000D01*
X123615908Y-102982079D01*
X123572871Y-103259545D01*
X123571000Y-103339900D01*
X123588224Y-103633473D01*
G36*
X123506331Y-105277680D02*
G01*
X123699849Y-105677884D01*
X124032520Y-105931857D01*
X124445524Y-106044743D01*
X124880043Y-106021684D01*
X125277255Y-105867822D01*
X125578341Y-105588298D01*
X125724483Y-105188256D01*
X125730000Y-105083282D01*
X125649668Y-104666261D01*
X125488930Y-104406930D01*
X125080767Y-104139379D01*
X124629788Y-104058110D01*
X124578423Y-104067595D01*
X124578423Y-104388223D01*
X124993634Y-104479099D01*
X125193741Y-104591701D01*
X125435671Y-104861474D01*
X125442373Y-105190268D01*
X125350056Y-105408026D01*
X125089983Y-105667706D01*
X124734802Y-105758330D01*
X124359497Y-105698459D01*
X124039048Y-105506653D01*
X123848438Y-105201470D01*
X123825000Y-105030540D01*
X123930061Y-104684477D01*
X124202551Y-104463527D01*
X124578423Y-104388223D01*
X124578423Y-104067595D01*
X124190317Y-104139263D01*
X123816683Y-104358979D01*
X123563212Y-104693396D01*
X123484229Y-105118656D01*
X123506331Y-105277680D01*
G37*
X123506331Y-105277680D02*
X123699849Y-105677884D01*
X124032520Y-105931857D01*
X124445524Y-106044743D01*
X124880043Y-106021684D01*
X125277255Y-105867822D01*
X125578341Y-105588298D01*
X125724483Y-105188256D01*
X125730000Y-105083282D01*
X125649668Y-104666261D01*
X125488930Y-104406930D01*
X125080767Y-104139379D01*
X124629788Y-104058110D01*
X124578423Y-104067595D01*
X124578423Y-104388223D01*
X124993634Y-104479099D01*
X125193741Y-104591701D01*
X125435671Y-104861474D01*
X125442373Y-105190268D01*
X125350056Y-105408026D01*
X125089983Y-105667706D01*
X124734802Y-105758330D01*
X124359497Y-105698459D01*
X124039048Y-105506653D01*
X123848438Y-105201470D01*
X123825000Y-105030540D01*
X123930061Y-104684477D01*
X124202551Y-104463527D01*
X124578423Y-104388223D01*
X124578423Y-104067595D01*
X124190317Y-104139263D01*
X123816683Y-104358979D01*
X123563212Y-104693396D01*
X123484229Y-105118656D01*
X123506331Y-105277680D01*
G36*
X123621838Y-108112208D02*
G01*
X123802711Y-108168885D01*
X124156153Y-108197062D01*
X124659812Y-108204000D01*
X125189288Y-108198241D01*
X125510714Y-108174762D01*
X125669899Y-108124258D01*
X125712655Y-108037422D01*
X125707562Y-107991171D01*
X125582468Y-107833285D01*
X125287725Y-107605898D01*
X124881229Y-107352371D01*
X124777500Y-107294641D01*
X123888500Y-106810938D01*
X124809250Y-106808969D01*
X125276097Y-106791727D01*
X125601134Y-106747329D01*
X125729708Y-106683428D01*
X125730000Y-106680000D01*
X125610612Y-106618151D01*
X125282253Y-106574353D01*
X124789630Y-106553864D01*
X124650500Y-106553000D01*
X124122449Y-106558804D01*
X123799618Y-106583053D01*
X123633358Y-106636002D01*
X123575021Y-106727905D01*
X123571000Y-106780543D01*
X123692719Y-106988539D01*
X124050497Y-107246076D01*
X124301250Y-107383793D01*
X125031500Y-107759500D01*
X124301250Y-107797587D01*
X123856443Y-107840570D01*
X123626340Y-107918350D01*
X123571000Y-108019837D01*
X123621838Y-108112208D01*
G37*
X123621838Y-108112208D02*
X123802711Y-108168885D01*
X124156153Y-108197062D01*
X124659812Y-108204000D01*
X125189288Y-108198241D01*
X125510714Y-108174762D01*
X125669899Y-108124258D01*
X125712655Y-108037422D01*
X125707562Y-107991171D01*
X125582468Y-107833285D01*
X125287725Y-107605898D01*
X124881229Y-107352371D01*
X124777500Y-107294641D01*
X123888500Y-106810938D01*
X124809250Y-106808969D01*
X125276097Y-106791727D01*
X125601134Y-106747329D01*
X125729708Y-106683428D01*
X125730000Y-106680000D01*
X125610612Y-106618151D01*
X125282253Y-106574353D01*
X124789630Y-106553864D01*
X124650500Y-106553000D01*
X124122449Y-106558804D01*
X123799618Y-106583053D01*
X123633358Y-106636002D01*
X123575021Y-106727905D01*
X123571000Y-106780543D01*
X123692719Y-106988539D01*
X124050497Y-107246076D01*
X124301250Y-107383793D01*
X125031500Y-107759500D01*
X124301250Y-107797587D01*
X123856443Y-107840570D01*
X123626340Y-107918350D01*
X123571000Y-108019837D01*
X123621838Y-108112208D01*
G36*
X123562611Y-109896437D02*
G01*
X123703374Y-110173445D01*
X123812764Y-110205551D01*
X123880195Y-110001001D01*
X123896480Y-109636403D01*
X123913004Y-109249834D01*
X123989088Y-109053602D01*
X124106212Y-108992965D01*
X124294707Y-109049283D01*
X124400751Y-109306811D01*
X124538041Y-109812268D01*
X124699502Y-110105000D01*
X124912615Y-110226264D01*
X125019705Y-110236000D01*
X125406146Y-110129991D01*
X125646106Y-109828432D01*
X125719973Y-109369678D01*
X125696708Y-109016046D01*
X125652897Y-108763720D01*
X125645890Y-108743750D01*
X125478744Y-108600844D01*
X125388329Y-108585000D01*
X125258059Y-108653281D01*
X125289873Y-108807250D01*
X125431299Y-109288247D01*
X125414209Y-109664386D01*
X125301877Y-109841407D01*
X125067685Y-109943430D01*
X124892769Y-109805297D01*
X124771360Y-109422378D01*
X124769842Y-109414346D01*
X124643348Y-109048707D01*
X124450963Y-108767371D01*
X124446907Y-108763651D01*
X124152787Y-108620096D01*
X123874507Y-108683205D01*
X123648375Y-108906469D01*
X123510699Y-109243380D01*
X123497784Y-109647427D01*
X123562611Y-109896437D01*
G37*
X123562611Y-109896437D02*
X123703374Y-110173445D01*
X123812764Y-110205551D01*
X123880195Y-110001001D01*
X123896480Y-109636403D01*
X123913004Y-109249834D01*
X123989088Y-109053602D01*
X124106212Y-108992965D01*
X124294707Y-109049283D01*
X124400751Y-109306811D01*
X124538041Y-109812268D01*
X124699502Y-110105000D01*
X124912615Y-110226264D01*
X125019705Y-110236000D01*
X125406146Y-110129991D01*
X125646106Y-109828432D01*
X125719973Y-109369678D01*
X125696708Y-109016046D01*
X125652897Y-108763720D01*
X125645890Y-108743750D01*
X125478744Y-108600844D01*
X125388329Y-108585000D01*
X125258059Y-108653281D01*
X125289873Y-108807250D01*
X125431299Y-109288247D01*
X125414209Y-109664386D01*
X125301877Y-109841407D01*
X125067685Y-109943430D01*
X124892769Y-109805297D01*
X124771360Y-109422378D01*
X124769842Y-109414346D01*
X124643348Y-109048707D01*
X124450963Y-108767371D01*
X124446907Y-108763651D01*
X124152787Y-108620096D01*
X123874507Y-108683205D01*
X123648375Y-108906469D01*
X123510699Y-109243380D01*
X123497784Y-109647427D01*
X123562611Y-109896437D01*
G36*
X119903758Y-93126440D02*
G01*
X119946415Y-93460961D01*
X120009044Y-93598108D01*
X120015000Y-93599000D01*
X120104170Y-93488641D01*
X120141990Y-93222740D01*
X120142000Y-93218000D01*
X120142000Y-92837000D01*
X121094500Y-92837000D01*
X121596917Y-92827020D01*
X121891832Y-92790959D01*
X122025176Y-92719628D01*
X122047000Y-92646500D01*
X121997104Y-92546016D01*
X121816796Y-92487033D01*
X121460142Y-92460364D01*
X121094500Y-92456000D01*
X120142000Y-92456000D01*
X120142000Y-92075000D01*
X120105213Y-91807487D01*
X120016580Y-91694029D01*
X120015000Y-91694000D01*
X119951007Y-91812188D01*
X119906405Y-92132116D01*
X119888118Y-92601832D01*
X119888000Y-92646500D01*
X119903758Y-93126440D01*
G37*
X119903758Y-93126440D02*
X119946415Y-93460961D01*
X120009044Y-93598108D01*
X120015000Y-93599000D01*
X120104170Y-93488641D01*
X120141990Y-93222740D01*
X120142000Y-93218000D01*
X120142000Y-92837000D01*
X121094500Y-92837000D01*
X121596917Y-92827020D01*
X121891832Y-92790959D01*
X122025176Y-92719628D01*
X122047000Y-92646500D01*
X121997104Y-92546016D01*
X121816796Y-92487033D01*
X121460142Y-92460364D01*
X121094500Y-92456000D01*
X120142000Y-92456000D01*
X120142000Y-92075000D01*
X120105213Y-91807487D01*
X120016580Y-91694029D01*
X120015000Y-91694000D01*
X119951007Y-91812188D01*
X119906405Y-92132116D01*
X119888118Y-92601832D01*
X119888000Y-92646500D01*
X119903758Y-93126440D01*
G36*
X120119336Y-94634481D02*
G01*
X120539100Y-94845906D01*
X120960412Y-95009170D01*
X121475146Y-95197054D01*
X121795766Y-95308879D01*
X121967838Y-95352659D01*
X122036931Y-95336407D01*
X122048610Y-95268138D01*
X122047000Y-95200267D01*
X121938724Y-95040438D01*
X121729500Y-94943848D01*
X121509285Y-94842092D01*
X121422339Y-94631062D01*
X121412000Y-94418937D01*
X121451834Y-94088587D01*
X121606794Y-93909766D01*
X121729500Y-93853000D01*
X121947520Y-93722439D01*
X122054670Y-93574979D01*
X122010004Y-93480611D01*
X121951750Y-93473069D01*
X121795318Y-93514978D01*
X121465224Y-93625238D01*
X121025352Y-93782270D01*
X120904000Y-93826945D01*
X120898526Y-93829197D01*
X120898526Y-94130144D01*
X121095142Y-94170636D01*
X121157966Y-94404485D01*
X121158000Y-94412612D01*
X121139998Y-94607198D01*
X121038441Y-94661734D01*
X120781999Y-94602601D01*
X120706406Y-94579627D01*
X120418999Y-94484123D01*
X120349337Y-94413939D01*
X120472028Y-94320913D01*
X120547656Y-94278515D01*
X120898526Y-94130144D01*
X120898526Y-93829197D01*
X120339989Y-94059022D01*
X120020637Y-94258998D01*
X119946800Y-94444832D01*
X120119336Y-94634481D01*
G37*
X120119336Y-94634481D02*
X120539100Y-94845906D01*
X120960412Y-95009170D01*
X121475146Y-95197054D01*
X121795766Y-95308879D01*
X121967838Y-95352659D01*
X122036931Y-95336407D01*
X122048610Y-95268138D01*
X122047000Y-95200267D01*
X121938724Y-95040438D01*
X121729500Y-94943848D01*
X121509285Y-94842092D01*
X121422339Y-94631062D01*
X121412000Y-94418937D01*
X121451834Y-94088587D01*
X121606794Y-93909766D01*
X121729500Y-93853000D01*
X121947520Y-93722439D01*
X122054670Y-93574979D01*
X122010004Y-93480611D01*
X121951750Y-93473069D01*
X121795318Y-93514978D01*
X121465224Y-93625238D01*
X121025352Y-93782270D01*
X120904000Y-93826945D01*
X120898526Y-93829197D01*
X120898526Y-94130144D01*
X121095142Y-94170636D01*
X121157966Y-94404485D01*
X121158000Y-94412612D01*
X121139998Y-94607198D01*
X121038441Y-94661734D01*
X120781999Y-94602601D01*
X120706406Y-94579627D01*
X120418999Y-94484123D01*
X120349337Y-94413939D01*
X120472028Y-94320913D01*
X120547656Y-94278515D01*
X120898526Y-94130144D01*
X120898526Y-93829197D01*
X120339989Y-94059022D01*
X120020637Y-94258998D01*
X119946800Y-94444832D01*
X120119336Y-94634481D01*
G36*
X119927003Y-97320284D02*
G01*
X120075217Y-97374500D01*
X120379447Y-97393384D01*
X120886501Y-97384038D01*
X120934345Y-97382386D01*
X121545452Y-97339969D01*
X121907142Y-97258772D01*
X122022227Y-97129960D01*
X121893518Y-96944695D01*
X121523828Y-96694141D01*
X121208767Y-96520000D01*
X120367544Y-96075500D01*
X121207272Y-96037947D01*
X121685309Y-96001520D01*
X121950892Y-95938475D01*
X122045078Y-95837945D01*
X122047000Y-95815697D01*
X121996601Y-95723099D01*
X121816946Y-95666290D01*
X121465341Y-95638024D01*
X120958667Y-95631000D01*
X120433680Y-95634555D01*
X120114726Y-95653575D01*
X119953854Y-95700595D01*
X119903113Y-95788147D01*
X119910917Y-95904861D01*
X120064540Y-96154338D01*
X120460979Y-96453518D01*
X120713500Y-96601846D01*
X121475500Y-97024971D01*
X120681750Y-97026485D01*
X120231442Y-97040381D01*
X119984918Y-97088062D01*
X119892878Y-97181773D01*
X119888000Y-97223636D01*
X119927003Y-97320284D01*
G37*
X119927003Y-97320284D02*
X120075217Y-97374500D01*
X120379447Y-97393384D01*
X120886501Y-97384038D01*
X120934345Y-97382386D01*
X121545452Y-97339969D01*
X121907142Y-97258772D01*
X122022227Y-97129960D01*
X121893518Y-96944695D01*
X121523828Y-96694141D01*
X121208767Y-96520000D01*
X120367544Y-96075500D01*
X121207272Y-96037947D01*
X121685309Y-96001520D01*
X121950892Y-95938475D01*
X122045078Y-95837945D01*
X122047000Y-95815697D01*
X121996601Y-95723099D01*
X121816946Y-95666290D01*
X121465341Y-95638024D01*
X120958667Y-95631000D01*
X120433680Y-95634555D01*
X120114726Y-95653575D01*
X119953854Y-95700595D01*
X119903113Y-95788147D01*
X119910917Y-95904861D01*
X120064540Y-96154338D01*
X120460979Y-96453518D01*
X120713500Y-96601846D01*
X121475500Y-97024971D01*
X120681750Y-97026485D01*
X120231442Y-97040381D01*
X119984918Y-97088062D01*
X119892878Y-97181773D01*
X119888000Y-97223636D01*
X119927003Y-97320284D01*
G36*
X120006188Y-98107992D02*
G01*
X120326116Y-98152594D01*
X120795832Y-98170881D01*
X120840500Y-98171000D01*
X121793000Y-98171000D01*
X121793000Y-98742500D01*
X121818224Y-99083329D01*
X121882045Y-99287776D01*
X121920000Y-99314000D01*
X121989549Y-99199172D01*
X122035679Y-98902963D01*
X122047000Y-98615500D01*
X122047000Y-97917000D01*
X120967500Y-97917000D01*
X120441787Y-97931045D01*
X120069501Y-97969676D01*
X119895348Y-98027631D01*
X119888000Y-98044000D01*
X120006188Y-98107992D01*
G37*
X120006188Y-98107992D02*
X120326116Y-98152594D01*
X120795832Y-98170881D01*
X120840500Y-98171000D01*
X121793000Y-98171000D01*
X121793000Y-98742500D01*
X121818224Y-99083329D01*
X121882045Y-99287776D01*
X121920000Y-99314000D01*
X121989549Y-99199172D01*
X122035679Y-98902963D01*
X122047000Y-98615500D01*
X122047000Y-97917000D01*
X120967500Y-97917000D01*
X120441787Y-97931045D01*
X120069501Y-97969676D01*
X119895348Y-98027631D01*
X119888000Y-98044000D01*
X120006188Y-98107992D01*
G36*
X119908877Y-100649022D02*
G01*
X119962733Y-100902734D01*
X120015000Y-100965000D01*
X120090739Y-100851488D01*
X120136172Y-100564293D01*
X120142000Y-100393500D01*
X120155159Y-100040839D01*
X120219844Y-99873752D01*
X120373863Y-99824182D01*
X120459500Y-99822000D01*
X120655422Y-99845687D01*
X120748248Y-99962120D01*
X120775787Y-100239354D01*
X120777000Y-100393500D01*
X120802224Y-100734329D01*
X120866045Y-100938776D01*
X120904000Y-100965000D01*
X120979739Y-100851488D01*
X121025172Y-100564293D01*
X121031000Y-100393500D01*
X121042044Y-100042075D01*
X121105814Y-99875629D01*
X121268263Y-99825230D01*
X121412000Y-99822000D01*
X121646282Y-99838566D01*
X121757246Y-99934221D01*
X121790846Y-100177895D01*
X121793000Y-100393500D01*
X121818224Y-100734329D01*
X121882045Y-100938776D01*
X121920000Y-100965000D01*
X121989549Y-100850172D01*
X122035679Y-100553963D01*
X122047000Y-100266500D01*
X122047000Y-99568000D01*
X119888000Y-99568000D01*
X119888000Y-100266500D01*
X119908877Y-100649022D01*
G37*
X119908877Y-100649022D02*
X119962733Y-100902734D01*
X120015000Y-100965000D01*
X120090739Y-100851488D01*
X120136172Y-100564293D01*
X120142000Y-100393500D01*
X120155159Y-100040839D01*
X120219844Y-99873752D01*
X120373863Y-99824182D01*
X120459500Y-99822000D01*
X120655422Y-99845687D01*
X120748248Y-99962120D01*
X120775787Y-100239354D01*
X120777000Y-100393500D01*
X120802224Y-100734329D01*
X120866045Y-100938776D01*
X120904000Y-100965000D01*
X120979739Y-100851488D01*
X121025172Y-100564293D01*
X121031000Y-100393500D01*
X121042044Y-100042075D01*
X121105814Y-99875629D01*
X121268263Y-99825230D01*
X121412000Y-99822000D01*
X121646282Y-99838566D01*
X121757246Y-99934221D01*
X121790846Y-100177895D01*
X121793000Y-100393500D01*
X121818224Y-100734329D01*
X121882045Y-100938776D01*
X121920000Y-100965000D01*
X121989549Y-100850172D01*
X122035679Y-100553963D01*
X122047000Y-100266500D01*
X122047000Y-99568000D01*
X119888000Y-99568000D01*
X119888000Y-100266500D01*
X119908877Y-100649022D01*
G36*
X119918560Y-102849854D02*
G01*
X120039751Y-102833975D01*
X120295839Y-102685734D01*
X120495718Y-102552500D01*
X121089438Y-102282702D01*
X121504981Y-102235000D01*
X121870882Y-102207349D01*
X122030783Y-102114328D01*
X122047000Y-102044500D01*
X121954521Y-101906135D01*
X121655719Y-101854976D01*
X121584796Y-101854000D01*
X121095240Y-101758487D01*
X120533900Y-101491584D01*
X120505296Y-101474173D01*
X120131320Y-101265291D01*
X119933323Y-101211063D01*
X119888000Y-101273315D01*
X119987735Y-101446779D01*
X120237039Y-101663290D01*
X120339956Y-101731608D01*
X120791912Y-102010932D01*
X120339956Y-102318044D01*
X120062022Y-102532961D01*
X119902728Y-102706615D01*
X119888000Y-102747578D01*
X119918560Y-102849854D01*
G37*
X119918560Y-102849854D02*
X120039751Y-102833975D01*
X120295839Y-102685734D01*
X120495718Y-102552500D01*
X121089438Y-102282702D01*
X121504981Y-102235000D01*
X121870882Y-102207349D01*
X122030783Y-102114328D01*
X122047000Y-102044500D01*
X121954521Y-101906135D01*
X121655719Y-101854976D01*
X121584796Y-101854000D01*
X121095240Y-101758487D01*
X120533900Y-101491584D01*
X120505296Y-101474173D01*
X120131320Y-101265291D01*
X119933323Y-101211063D01*
X119888000Y-101273315D01*
X119987735Y-101446779D01*
X120237039Y-101663290D01*
X120339956Y-101731608D01*
X120791912Y-102010932D01*
X120339956Y-102318044D01*
X120062022Y-102532961D01*
X119902728Y-102706615D01*
X119888000Y-102747578D01*
X119918560Y-102849854D01*
%TD*%
%LPC*%
D11*
%TO.C,J3*%
X103124000Y-111633000D03*
G36*
G01*
X104674000Y-117613000D02*
X101574000Y-117613000D01*
G75*
G02*
X101324000Y-117363000I0J250000D01*
G01*
X101324000Y-116063000D01*
G75*
G02*
X101574000Y-115813000I250000J0D01*
G01*
X104674000Y-115813000D01*
G75*
G02*
X104924000Y-116063000I0J-250000D01*
G01*
X104924000Y-117363000D01*
G75*
G02*
X104674000Y-117613000I-250000J0D01*
G01*
G37*
%TD*%
D12*
%TO.C,J2*%
X127127000Y-116713000D03*
X122047000Y-116713000D03*
X116967000Y-116713000D03*
G36*
G01*
X110987000Y-118263000D02*
X110987000Y-115163000D01*
G75*
G02*
X111237000Y-114913000I250000J0D01*
G01*
X112537000Y-114913000D01*
G75*
G02*
X112787000Y-115163000I0J-250000D01*
G01*
X112787000Y-118263000D01*
G75*
G02*
X112537000Y-118513000I-250000J0D01*
G01*
X111237000Y-118513000D01*
G75*
G02*
X110987000Y-118263000I0J250000D01*
G01*
G37*
%TD*%
D11*
%TO.C,J1*%
X102997000Y-89535000D03*
X102997000Y-94615000D03*
X102997000Y-99695000D03*
G36*
G01*
X104547000Y-105675000D02*
X101447000Y-105675000D01*
G75*
G02*
X101197000Y-105425000I0J250000D01*
G01*
X101197000Y-104125000D01*
G75*
G02*
X101447000Y-103875000I250000J0D01*
G01*
X104547000Y-103875000D01*
G75*
G02*
X104797000Y-104125000I0J-250000D01*
G01*
X104797000Y-105425000D01*
G75*
G02*
X104547000Y-105675000I-250000J0D01*
G01*
G37*
%TD*%
D13*
%TO.C,R2*%
X129794000Y-97790000D03*
D14*
X119634000Y-97790000D03*
%TD*%
D13*
%TO.C,R1*%
X129667000Y-91567000D03*
D14*
X119507000Y-91567000D03*
%TD*%
D15*
%TO.C,C2*%
X120396000Y-108251000D03*
X120396000Y-103251000D03*
%TD*%
%TO.C,C1*%
X113284000Y-89742000D03*
X113284000Y-94742000D03*
%TD*%
D16*
%TO.C,U1*%
X134112000Y-88646000D03*
D17*
X136652000Y-88646000D03*
X134112000Y-91186000D03*
X136652000Y-91186000D03*
X134112000Y-93726000D03*
X136652000Y-93726000D03*
X134112000Y-96266000D03*
X136652000Y-96266000D03*
%TD*%
D18*
%TO.C,U2*%
X113284000Y-100076000D03*
X113284000Y-102616000D03*
D19*
X113284000Y-105156000D03*
%TD*%
D18*
%TO.C,Q2*%
X136779000Y-103124000D03*
X136779000Y-105664000D03*
D19*
X136779000Y-108204000D03*
%TD*%
D18*
%TO.C,Q1*%
X129540000Y-103124000D03*
X129540000Y-105664000D03*
D19*
X129540000Y-108204000D03*
%TD*%
M02*
